<svg width="20" height="21" viewBox="0 0 20 21" fill="none" xmlns="http://www.w3.org/2000/svg">
<g id="Icon/moon">
<path id="Vector" d="M12.6622 13.6855C14.1026 13.9798 15.5977 13.8442 16.9617 13.2957C16.4033 14.6852 15.442 15.8757 14.2013 16.7142C12.9606 17.5527 11.4974 18.0008 10 18.0007C8.25867 17.9988 6.5722 17.3913 5.22972 16.2822C3.88725 15.1731 2.97238 13.6316 2.64194 11.9219C2.31151 10.2122 2.58609 8.44077 3.41862 6.91133C4.25115 5.38189 5.58977 4.18967 7.20501 3.53906C6.65651 4.90304 6.52097 6.39815 6.81524 7.83853C7.10951 9.27891 7.82062 10.601 8.86016 11.6406C9.8997 12.6801 11.2218 13.3912 12.6622 13.6855Z" stroke="#223047" stroke-width="2" stroke-linecap="round" stroke-linejoin="round"/>
</g>
</svg>
