<svg width="20" height="21" viewBox="0 0 20 21" fill="none" xmlns="http://www.w3.org/2000/svg">
<g id="Icon/sun">
<path id="Vector" d="M10 3V3.83333M10 17.1667V18M17.5 10.5H16.6667M3.33333 10.5H2.5M15.3033 15.8033L14.7142 15.2142M5.28583 5.78583L4.69667 5.19667M15.3033 5.19667L14.7142 5.78583M5.28583 15.2142L4.69667 15.8033M13.3333 10.5C13.3333 11.3841 12.9821 12.2319 12.357 12.857C11.7319 13.4821 10.8841 13.8333 10 13.8333C9.11594 13.8333 8.2681 13.4821 7.64298 12.857C7.01786 12.2319 6.66667 11.3841 6.66667 10.5C6.66667 9.61594 7.01786 8.7681 7.64298 8.14298C8.2681 7.51786 9.11594 7.16667 10 7.16667C10.8841 7.16667 11.7319 7.51786 12.357 8.14298C12.9821 8.7681 13.3333 9.61594 13.3333 10.5Z" stroke="#F4F5F6" stroke-width="2" stroke-linecap="round" stroke-linejoin="round"/>
</g>
</svg>
