<svg width="68" height="62" viewBox="0 0 68 62" fill="none" xmlns="http://www.w3.org/2000/svg">
<rect width="68" height="62" rx="4" fill="#F4F5F6"/>
<path d="M8.25977 16L11.8145 6.10156H13.5576L17.1191 16H15.5127L12.7236 7.91309H12.6416L9.8457 16H8.25977ZM15.2529 12.124V13.3818H10.1123V12.124H15.2529Z" fill="#223047"/>
<path d="M9.01172 26.1016H12.6348C13.3229 26.1016 13.8994 26.2132 14.3643 26.4365C14.8337 26.6598 15.1846 26.9674 15.417 27.3594C15.6494 27.7467 15.7656 28.1934 15.7656 28.6992C15.7656 29.0911 15.6927 29.4307 15.5469 29.7178C15.401 30.0003 15.2028 30.2305 14.9521 30.4082C14.7015 30.5814 14.4144 30.709 14.0908 30.791V30.8867C14.4326 30.9049 14.7607 31.0143 15.0752 31.2148C15.3942 31.4154 15.654 31.6979 15.8545 32.0625C16.055 32.4225 16.1553 32.8486 16.1553 33.3408C16.1553 33.8558 16.0345 34.3138 15.793 34.7148C15.5514 35.1113 15.18 35.4258 14.6787 35.6582C14.1774 35.8861 13.5531 36 12.8057 36H9.01172V26.1016ZM12.6553 34.708C13.1201 34.708 13.5007 34.6465 13.7969 34.5234C14.0931 34.3958 14.3096 34.2249 14.4463 34.0107C14.583 33.7965 14.6514 33.5482 14.6514 33.2656C14.6514 32.9466 14.5739 32.6549 14.4189 32.3906C14.264 32.1263 14.0384 31.9212 13.7422 31.7754C13.446 31.625 13.1064 31.5498 12.7236 31.5498H10.5156V34.708H12.6553ZM12.5049 30.374C12.8376 30.374 13.1383 30.3102 13.4072 30.1826C13.6807 30.0505 13.8949 29.8682 14.0498 29.6357C14.2093 29.4033 14.2891 29.1299 14.2891 28.8154C14.2891 28.5329 14.2253 28.2845 14.0977 28.0703C13.9701 27.8561 13.7741 27.6898 13.5098 27.5713C13.25 27.4482 12.9287 27.3867 12.5459 27.3867H10.5156V30.374H12.5049Z" fill="#223047"/>
<path d="M15.7178 50.3281C15.6403 49.9089 15.4785 49.5511 15.2324 49.2549C14.9909 48.9541 14.6878 48.7262 14.3232 48.5713C13.9632 48.4163 13.5736 48.3389 13.1543 48.3389C12.5846 48.3389 12.0742 48.4847 11.623 48.7764C11.1719 49.0635 10.8164 49.4873 10.5566 50.0479C10.3014 50.6038 10.1738 51.2715 10.1738 52.0508C10.1738 52.8392 10.3014 53.5114 10.5566 54.0674C10.8164 54.6234 11.1719 55.0449 11.623 55.332C12.0742 55.6191 12.5824 55.7627 13.1475 55.7627C13.5667 55.7627 13.9541 55.6852 14.3096 55.5303C14.665 55.3753 14.9681 55.152 15.2188 54.8604C15.4694 54.5641 15.6357 54.2132 15.7178 53.8076L17.2285 53.8145C17.1237 54.457 16.8844 55.0312 16.5107 55.5371C16.1416 56.043 15.6676 56.4372 15.0889 56.7197C14.5101 56.9977 13.8607 57.1367 13.1406 57.1367C12.2793 57.1367 11.5114 56.9316 10.8369 56.5215C10.167 56.1113 9.64062 55.5212 9.25781 54.751C8.87956 53.9808 8.69043 53.0807 8.69043 52.0508C8.69043 51.0117 8.88184 50.1094 9.26465 49.3438C9.64746 48.5781 10.1738 47.9902 10.8438 47.5801C11.5182 47.1699 12.2839 46.9648 13.1406 46.9648C13.8379 46.9648 14.4759 47.0993 15.0547 47.3682C15.638 47.6325 16.1188 48.0176 16.4971 48.5234C16.8753 49.0293 17.1191 49.6309 17.2285 50.3281H15.7178Z" fill="#223047"/>
<rect y="20" width="68" height="1" fill="white"/>
<rect y="41" width="68" height="1" fill="white"/>
<rect y="41" width="68" height="1" fill="white"/>
</svg>
