<svg width="37" height="16" viewBox="0 0 37 16" fill="none" xmlns="http://www.w3.org/2000/svg">
<rect x="0.5" y="0.5" width="36" height="15" rx="3.5" stroke="#3680F7"/>
<path d="M4.86719 3.51562H7.97266C8.5625 3.51562 9.05664 3.61133 9.45508 3.80273C9.85742 3.99414 10.1582 4.25781 10.3574 4.59375C10.5566 4.92578 10.6562 5.30859 10.6562 5.74219C10.6562 6.07812 10.5938 6.36914 10.4688 6.61523C10.3438 6.85742 10.1738 7.05469 9.95898 7.20703C9.74414 7.35547 9.49805 7.46484 9.2207 7.53516V7.61719C9.51367 7.63281 9.79492 7.72656 10.0645 7.89844C10.3379 8.07031 10.5605 8.3125 10.7324 8.625C10.9043 8.93359 10.9902 9.29883 10.9902 9.7207C10.9902 10.1621 10.8867 10.5547 10.6797 10.8984C10.4727 11.2383 10.1543 11.5078 9.72461 11.707C9.29492 11.9023 8.75977 12 8.11914 12H4.86719V3.51562ZM7.99023 10.8926C8.38867 10.8926 8.71484 10.8398 8.96875 10.7344C9.22266 10.625 9.4082 10.4785 9.52539 10.2949C9.64258 10.1113 9.70117 9.89844 9.70117 9.65625C9.70117 9.38281 9.63477 9.13281 9.50195 8.90625C9.36914 8.67969 9.17578 8.50391 8.92188 8.37891C8.66797 8.25 8.37695 8.18555 8.04883 8.18555H6.15625V10.8926H7.99023ZM7.86133 7.17773C8.14648 7.17773 8.4043 7.12305 8.63477 7.01367C8.86914 6.90039 9.05273 6.74414 9.18555 6.54492C9.32227 6.3457 9.39062 6.11133 9.39062 5.8418C9.39062 5.59961 9.33594 5.38672 9.22656 5.20312C9.11719 5.01953 8.94922 4.87695 8.72266 4.77539C8.5 4.66992 8.22461 4.61719 7.89648 4.61719H6.15625V7.17773H7.86133ZM12.3672 3.51562H17.6934V4.62305H13.6562V7.20117H17.4121V8.30273H13.6562V10.8926H17.7344V12H12.3672V3.51562ZM18.8301 3.51562H25.4102V4.62305H22.7734V12H21.4785V4.62305H18.8301V3.51562ZM25.0703 12L28.1172 3.51562H29.6113L32.6641 12H31.2871L28.8965 5.06836H28.8262L26.4297 12H25.0703ZM31.0645 8.67773V9.75586H26.6582V8.67773H31.0645Z" fill="#3680F7"/>
</svg>
