<svg width="24" height="24" viewBox="0 0 24 24" fill="none" xmlns="http://www.w3.org/2000/svg">
<g clip-path="url(#clip0_56_1173)">
<path d="M19 3H5C3.9 3 3 3.9 3 5V19C3 20.1 3.9 21 5 21H19C20.1 21 21 20.1 21 19V5C21 3.9 20.1 3 19 3ZM19 19H5V5H19V19Z" fill="#223047"/>
<path d="M15.0711 8.00022L8 15.0713L9.06066 16.1319L16.1317 9.06088L15.0711 8.00022Z" fill="#223047"/>
<path fill-rule="evenodd" clip-rule="evenodd" d="M9.5 8.75C9.08579 8.75 8.75 9.08579 8.75 9.5C8.75 9.91421 9.08579 10.25 9.5 10.25C9.91421 10.25 10.25 9.91421 10.25 9.5C10.25 9.08579 9.91421 8.75 9.5 8.75ZM7.25 9.5C7.25 8.25736 8.25736 7.25 9.5 7.25C10.7426 7.25 11.75 8.25736 11.75 9.5C11.75 10.7426 10.7426 11.75 9.5 11.75C8.25736 11.75 7.25 10.7426 7.25 9.5Z" fill="#223047"/>
<path fill-rule="evenodd" clip-rule="evenodd" d="M14.5 13.75C14.0858 13.75 13.75 14.0858 13.75 14.5C13.75 14.9142 14.0858 15.25 14.5 15.25C14.9142 15.25 15.25 14.9142 15.25 14.5C15.25 14.0858 14.9142 13.75 14.5 13.75ZM12.25 14.5C12.25 13.2574 13.2574 12.25 14.5 12.25C15.7426 12.25 16.75 13.2574 16.75 14.5C16.75 15.7426 15.7426 16.75 14.5 16.75C13.2574 16.75 12.25 15.7426 12.25 14.5Z" fill="#223047"/>
</g>
<defs>
<clipPath id="clip0_56_1173">
<rect width="24" height="24" fill="white"/>
</clipPath>
</defs>
</svg>
