<svg width="24" height="24" viewBox="0 0 24 24" fill="none" xmlns="http://www.w3.org/2000/svg">
<g clip-path="url(#clip0_503_16793)">
<path fill-rule="evenodd" clip-rule="evenodd" d="M16.5 2.5H4.5C3.4 2.5 2.5 3.4 2.5 4.5V18.5H4.5V4.5H16.5V2.5ZM19.7222 19.7222V7.27778H7.27778V19.7222H19.7222ZM6.3 5.5H20.7C21.0556 5.5 21.5 5.85556 21.5 6.3V20.7C21.5 21.0556 21.0556 21.5 20.7 21.5H6.3C5.85556 21.5 5.5 21.0556 5.5 20.7V6.3C5.5 5.85556 5.85556 5.5 6.3 5.5ZM17.9444 9.05556H12.6111V10.8333H17.9444V9.05556ZM17.9444 12.6111H12.6111V14.3889H17.9444V12.6111ZM17.9444 16.1667H12.6111V17.9444H17.9444V16.1667ZM10.8333 9.05556H9.05556V10.8333H10.8333V9.05556ZM10.8333 12.6111H9.05556V14.3889H10.8333V12.6111ZM10.8333 16.1667H9.05556V17.9444H10.8333V16.1667Z" fill="#223047"/>
</g>
<defs>
<clipPath id="clip0_503_16793">
<rect width="24" height="24" fill="white"/>
</clipPath>
</defs>
</svg>
