<svg width="24" height="24" viewBox="0 0 24 24" fill="none" xmlns="http://www.w3.org/2000/svg">
<g clip-path="url(#clip0_503_16792)">
<path fill-rule="evenodd" clip-rule="evenodd" d="M4.27778 4.27778V16.7222H11V18.5H3.3C2.85556 18.5 2.5 18.0556 2.5 17.7V3.3C2.5 2.85556 2.85556 2.5 3.3 2.5H17.7C18.0556 2.5 18.5 2.85556 18.5 3.3V13H16.7222V4.27778H4.27778ZM9.6111 6.05554H14.9444V7.83332H9.6111V6.05554ZM9.6111 9.6111H14.9444V11.3889H9.6111V9.6111ZM9.6111 13.1667H14.9444V14.9444H9.6111V13.1667ZM6.05554 6.05554H7.83332V7.83332H6.05554V6.05554ZM6.05554 9.6111H7.83332V11.3889H6.05554V9.6111ZM6.05554 13.1667H7.83332V14.9444H6.05554V13.1667ZM15.7113 17.2H21.2059C21.6445 17.2 22 17.5582 22 18C22 18.4418 21.6445 18.8 21.2059 18.8H15.7113L17.5321 20.6343C17.8422 20.9467 17.8422 21.4533 17.5321 21.7657C17.222 22.0781 16.7192 22.0781 16.4091 21.7657L13.2326 18.5657C13.0837 18.4157 13 18.2122 13 18C13 17.7878 13.0837 17.5843 13.2326 17.4343L16.4091 14.2343C16.7192 13.9219 17.222 13.9219 17.5321 14.2343C17.8422 14.5467 17.8422 15.0533 17.5321 15.3657L15.7113 17.2Z" fill="#223047"/>
</g>
<defs>
<clipPath id="clip0_503_16792">
<rect width="24" height="24" fill="white"/>
</clipPath>
</defs>
</svg>
