<svg width="24" height="24" viewBox="0 0 24 24" fill="none" xmlns="http://www.w3.org/2000/svg">
<g id="Icon/check_circle">
<path d="M11.12 2.039c-2.784.279-5.215 1.585-6.927 3.721a9.971 9.971 0 0 0-.511 11.773 9.967 9.967 0 0 0 13.878 2.766A9.97 9.97 0 0 0 20.299 6.44c-1.571-2.348-3.98-3.878-6.806-4.321-.584-.092-1.833-.134-2.373-.08m6.2 6.261.699.7-3.999 4-4 4-2-2-2-2 .7-.7.699-.7 1.291 1.29L10 14.18l3.29-3.29c1.809-1.81 3.299-3.29 3.31-3.29.012 0 .336.315.72.7" fill="#223047" fill-rule="evenodd"/>
</g>
</svg>

