<svg width="121" height="137" viewBox="0 0 121 137" fill="none" xmlns="http://www.w3.org/2000/svg">
<path d="M91.8373 53.8752L95.2082 60.6333L97.9894 67.6491L100.134 74.8691L101.591 82.2417L102.301 89.7167L102.208 97.0083L101.317 103.838L99.6613 110.164L97.2693 115.936L94.17 121.098L90.3929 125.585L85.9661 129.329L80.9198 132.255L75.2856 134.279L69.0991 135.312L62.4019 135.257L55.2444 134.014L47.9272 131.568L40.7786 128.019L33.9008 123.447L27.3981 117.945L21.3751 111.617L15.9342 104.579L11.1742 96.9555L7.18837 88.8788L4.06276 80.4867L1.87453 71.9204L0.690502 63.3217L0.566016 54.8307L1.50776 46.8383L3.42107 39.6776L6.19981 33.3892L9.73954 28.0028L13.9403 23.5385L18.7087 20.0098L23.9587 17.4257L29.6116 15.7938L35.5949 15.1217L41.8421 15.4182L48.292 16.6935L54.8888 18.9603L61.3732 22.1272L67.5035 26.0322L73.253 30.5904L78.5929 35.7236L83.4926 41.3595L87.9192 47.4309L91.8373 53.8752Z" fill="#8FD7FF" fill-opacity="0.62" stroke="white" stroke-width="1.13106"/>
<g filter="url(#filter0_b_1733_248088)">
<path fill-rule="evenodd" clip-rule="evenodd" d="M3.06311 39.974L1.05022 47.3697L0 55.5851L0.00701933 64.2795L1.06709 73.0569L3.12529 81.7777L6.11643 90.3012L9.96604 98.4882L14.5917 106.202L19.9046 113.313L25.8106 119.696L32.2127 125.236L39.0116 129.828L46.1081 133.378L53.4041 135.803L60.5758 136.999L67.3225 136.982L73.5878 135.847L78.1999 134.175L82.8968 132.472L87.6809 130.737L92.5547 128.97L86.2679 130.069L79.4735 130.011L72.2264 128.693L64.8299 126.104L57.6126 122.352L50.6762 117.524L44.1236 111.718L38.0581 105.046L32.5808 97.6267L27.7897 89.5918L23.7777 81.079L20.6308 72.2316L18.4266 63.1963L17.2332 54.1212L17.1076 45.1527L18.0587 36.7006L19.9944 29.115L22.8105 22.4418L26.4038 16.7161L30.6741 11.9643L35.5254 8.20508L31.2074 11.0754L26.9684 13.8933L22.8062 16.6602L18.7187 19.3774L13.8609 23.1215L9.56837 27.8177L5.93635 33.4445L3.06311 39.974Z" fill="url(#paint0_linear_1733_248088)" fill-opacity="0.6"/>
</g>
<g filter="url(#filter1_b_1733_248088)">
<path fill-rule="evenodd" clip-rule="evenodd" d="M115.657 58.4154L112.857 51.0193L109.464 43.8964L105.521 37.1045L101.065 30.705L96.1314 24.7629L90.7525 19.3486L84.9576 14.538L78.7742 10.4136L72.2282 7.06601L65.5604 4.66687L59.0302 3.31483L52.6945 3L46.6172 3.71478L40.8689 5.45243L35.5271 8.20562L30.6758 11.9648L26.4056 16.7167L22.8122 22.4423L19.9961 29.1155L18.0605 36.7011L17.1094 45.1532L17.2349 54.1217L18.4283 63.1969L20.6325 72.2321L23.7794 81.0795L27.7915 89.5924L32.5825 97.6272L38.0598 105.046L44.1254 111.719L50.6779 117.525L57.6143 122.353L64.8316 126.104L72.2282 128.693L79.4752 130.011L86.2696 130.07L92.5564 128.971L98.288 126.815L103.423 123.697L107.926 119.709L111.764 114.935L114.909 109.451L117.332 103.328L119.007 96.6265L119.907 89.4013L120.001 81.6978L119.285 73.8074L117.818 66.0292L115.657 58.4154Z" fill="url(#paint1_linear_1733_248088)" fill-opacity="0.2"/>
<path d="M108.964 44.1605L112.337 51.2414L115.12 58.593L117.267 66.1591L118.724 73.8856L119.436 81.72L119.342 89.3628L118.45 96.5226L116.792 103.154L114.398 109.205L111.295 114.615L107.515 119.317L103.086 123.24L98.0396 126.304L92.4069 128.423L86.2229 129.504L79.5287 129.446L72.3731 128.145L65.0566 125.584L57.9075 121.868L51.0281 117.079L44.5233 111.316L38.4977 104.687L33.054 97.3137L28.2913 89.3264L24.3029 80.8637L21.1751 72.0699L18.985 63.0927L17.8 54.0808L17.6753 45.181L18.6181 36.8031L20.5336 29.2964L23.3155 22.7042L26.8587 17.0585L31.0625 12.3807L35.8324 8.68449L41.0821 5.97881L46.733 4.27059L52.7136 3.56718L58.9584 3.87749L65.4066 5.21254L72.0028 7.58593L78.4876 10.9022L84.6192 14.9921L90.3704 19.7665L95.7125 25.1436L100.614 31.0478L105.043 37.4086L108.964 44.1605Z" stroke="white" stroke-width="1.13106"/>
</g>
<g filter="url(#filter2_f_1733_248088)">
<path d="M68.3478 30.4627C70.6545 31.0288 72.5622 33.42 72.679 35.8404L72.8444 40.0958C81.0981 43.8924 84.7577 52.0614 85.147 57.3318C85.3417 59.762 83.6676 61.3529 81.4095 60.8746C81.3025 60.8649 81.1954 60.8453 81.0883 60.8161C79.0347 60.3378 77.1951 57.9662 77.0102 55.6824C76.8642 54.1208 75.8227 48.9383 69.1848 47.3962C62.7902 45.9127 62.2062 50.2656 62.2451 52.2078C62.4009 53.7987 63.5007 58.2102 69.944 59.6937C81.1954 62.2996 85.9159 72.5963 86.3442 78.9012L86.3539 79.1159L86.3442 79.3599C86.1885 82.5124 85.0594 85.2354 83.1225 87.1386C81.1857 89.0417 78.5577 90.0275 75.6086 89.9397L75.8811 94.9465C76.0077 97.3572 74.2655 98.8895 72.0074 98.3625C69.7493 97.8354 67.8124 95.454 67.6859 93.0433L67.4134 88.0365C59.1111 84.2789 55.8018 76.266 55.247 72.0497C54.9064 69.6098 56.4442 67.8725 58.6926 68.1751C58.8093 68.1946 58.9261 68.2141 59.0429 68.2434C61.1939 68.7411 63.0335 70.8297 63.3547 73.1721C63.5786 74.5385 64.8244 79.2623 71.073 80.7068C77.234 82.1317 78.0419 78.0521 78.1587 76.9102C77.9251 75.046 76.7571 69.9123 70.4112 68.4386C59.1597 65.8327 54.4684 56.1606 54.0693 50.2851C53.826 44.9074 56.5805 38.134 64.6979 38.1731L64.5032 33.8397C64.3864 31.4582 66.1189 29.9455 68.3478 30.4627Z" fill="url(#paint2_linear_1733_248088)"/>
</g>
<path fill-rule="evenodd" clip-rule="evenodd" d="M63.9754 34.2819L67.0928 32.0059C67.0345 30.7122 67.5201 29.6812 68.3261 29.0879L65.2088 31.3639C64.4027 31.9572 63.9172 32.9882 63.9754 34.2819ZM64.1698 38.6004L67.2872 36.3341L67.0929 32.0058L63.9756 34.2818L64.1698 38.6004Z" fill="url(#paint3_linear_1733_248088)"/>
<path fill-rule="evenodd" clip-rule="evenodd" d="M83.9709 58.949L83.9712 58.9488L83.6507 58.8904C81.6113 58.4138 79.7661 56.0503 79.5816 53.7743C79.436 52.2083 78.3968 47.0435 71.7737 45.5164C69.2099 44.9231 67.5784 45.2732 66.549 46.0222L63.4316 48.2982C64.461 47.5493 66.0925 47.1991 68.6563 47.7924C75.2795 49.3292 76.3186 54.494 76.4643 56.0503C76.6488 58.3263 78.4842 60.6899 80.5333 61.1665C80.6401 61.1956 80.747 61.2151 80.8538 61.2248L80.8535 61.225C81.8344 61.4292 82.7181 61.2444 83.3688 60.7678L86.4796 58.4966C85.8295 58.9697 84.9485 59.1525 83.9709 58.949Z" fill="url(#paint4_linear_1733_248088)" fill-opacity="0.6"/>
<path fill-rule="evenodd" clip-rule="evenodd" d="M53.5662 50.6797L53.5658 50.68C53.4007 47.0812 54.5855 42.8501 57.8388 40.4769L60.9503 38.2051C57.7043 40.577 56.5203 44.7996 56.6827 48.3942L56.6829 48.394C57.0908 54.2494 61.7717 63.8884 72.9883 66.4854C79.3201 67.9541 80.4855 73.0703 80.7185 74.9281L77.6012 77.2041C77.3681 75.3463 76.2028 70.2302 69.8709 68.7614C58.6508 66.1659 53.9689 56.536 53.5662 50.6797ZM79.0091 78.1672L75.8934 80.442C77.2516 79.4498 77.5427 77.8557 77.6009 77.214L80.7183 74.938C80.66 75.5799 80.3687 77.1654 79.0091 78.1672Z" fill="url(#paint5_linear_1733_248088)" fill-opacity="0.6"/>
<path d="M84.6107 86.0176L81.4933 88.2936C79.7064 89.597 77.4825 90.2584 75.0547 90.1903L78.172 87.9143C80.6096 87.9823 82.8238 87.3307 84.6107 86.0176Z" fill="#51A0FF"/>
<path fill-rule="evenodd" clip-rule="evenodd" d="M67.1508 93.2931L70.2682 91.0171L69.9963 86.0273L66.8789 88.3034L67.1508 93.2931ZM74.095 98.1464L77.2123 95.8704C76.5228 96.3664 75.61 96.5512 74.5805 96.3178C72.3275 95.7926 70.395 93.4193 70.2687 91.0168L67.1514 93.2928C67.2776 95.6953 69.2102 98.0686 71.4632 98.5938C72.4926 98.837 73.4055 98.6424 74.095 98.1464Z" fill="url(#paint6_linear_1733_248088)"/>
<path d="M69.998 86.0261L66.8807 88.3021C58.5969 84.5574 55.295 76.5719 54.7415 72.37C54.5375 70.9013 55.0231 69.6855 55.9263 69.0241L59.0436 66.748C58.1307 67.4095 57.6549 68.6253 57.8588 70.094C58.4124 74.2959 61.7142 82.2814 69.998 86.0261Z" fill="url(#paint7_linear_1733_248088)"/>
<g filter="url(#filter3_b_1733_248088)">
<path d="M70.9389 28.6401C73.2405 29.2043 75.1439 31.5873 75.2605 33.9995L75.4256 38.2402C83.6608 42.0239 87.3123 50.165 87.7007 55.4174C87.8949 57.8393 86.2246 59.4247 83.9716 58.9481C83.8647 58.9384 83.7579 58.9189 83.6511 58.8897C81.602 58.4131 79.7665 56.0496 79.582 53.7736C79.4364 52.2173 78.3972 47.0525 71.7741 45.5157C65.3937 44.0373 64.8111 48.3753 64.8499 50.3109C65.0053 51.8963 66.1027 56.2927 72.5316 57.7712C83.7579 60.3682 88.4679 70.6297 88.8952 76.9131L88.9049 77.1271L88.8952 77.3702C88.7398 80.5119 87.6133 83.2256 85.6808 85.1223C83.7482 87.019 81.1261 88.0014 78.1836 87.9138L78.4555 92.9035C78.5818 95.306 76.8434 96.8331 74.5904 96.3078C72.3374 95.7826 70.4048 93.4093 70.2786 91.0069L70.0066 86.0171C61.7228 82.2724 58.421 74.2869 57.8674 70.085C57.5275 67.6534 59.0619 65.9221 61.3053 66.2236C61.4218 66.243 61.5383 66.2625 61.6549 66.2917C63.8011 66.7877 65.6365 68.8692 65.957 71.2036C66.1804 72.5653 67.4234 77.273 73.6581 78.7125C79.8054 80.1326 80.6114 76.0669 80.728 74.9289C80.4949 73.0711 79.3295 67.9549 72.9977 66.4862C61.7714 63.8892 57.0905 54.2502 56.6924 48.3948C56.4496 43.0354 59.1979 36.2852 67.2972 36.3241L67.1029 32.0055C66.9864 29.6322 68.715 28.1246 70.9389 28.6401Z" fill="url(#paint8_linear_1733_248088)" fill-opacity="0.7"/>
</g>
<defs>
<filter id="filter0_b_1733_248088" x="-33.9318" y="-25.7267" width="160.418" height="196.658" filterUnits="userSpaceOnUse" color-interpolation-filters="sRGB">
<feFlood flood-opacity="0" result="BackgroundImageFix"/>
<feGaussianBlur in="BackgroundImageFix" stdDeviation="16.9659"/>
<feComposite in2="SourceAlpha" operator="in" result="effect1_backgroundBlur_1733_248088"/>
<feBlend mode="normal" in="SourceGraphic" in2="effect1_backgroundBlur_1733_248088" result="shape"/>
</filter>
<filter id="filter1_b_1733_248088" x="2.40561" y="-11.7038" width="132.3" height="156.478" filterUnits="userSpaceOnUse" color-interpolation-filters="sRGB">
<feFlood flood-opacity="0" result="BackgroundImageFix"/>
<feGaussianBlur in="BackgroundImageFix" stdDeviation="7.35188"/>
<feComposite in2="SourceAlpha" operator="in" result="effect1_backgroundBlur_1733_248088"/>
<feBlend mode="normal" in="SourceGraphic" in2="effect1_backgroundBlur_1733_248088" result="shape"/>
</filter>
<filter id="filter2_f_1733_248088" x="24.0547" y="0.361328" width="92.2988" height="128.105" filterUnits="userSpaceOnUse" color-interpolation-filters="sRGB">
<feFlood flood-opacity="0" result="BackgroundImageFix"/>
<feBlend mode="normal" in="SourceGraphic" in2="BackgroundImageFix" result="shape"/>
<feGaussianBlur stdDeviation="15" result="effect1_foregroundBlur_1733_248088"/>
</filter>
<filter id="filter3_b_1733_248088" x="41.0842" y="12.9455" width="63.4137" height="99.0601" filterUnits="userSpaceOnUse" color-interpolation-filters="sRGB">
<feFlood flood-opacity="0" result="BackgroundImageFix"/>
<feGaussianBlur in="BackgroundImageFix" stdDeviation="7.79677"/>
<feComposite in2="SourceAlpha" operator="in" result="effect1_backgroundBlur_1733_248088"/>
<feBlend mode="normal" in="SourceGraphic" in2="effect1_backgroundBlur_1733_248088" result="shape"/>
</filter>
<linearGradient id="paint0_linear_1733_248088" x1="26.9186" y1="27.553" x2="73.1915" y2="135.879" gradientUnits="userSpaceOnUse">
<stop offset="0.325325" stop-color="#C0DDFF"/>
<stop offset="0.59538" stop-color="#1277C1"/>
<stop offset="0.814274" stop-color="#053174"/>
<stop offset="0.896974" stop-color="#053174"/>
<stop offset="1" stop-color="#0D469B"/>
</linearGradient>
<linearGradient id="paint1_linear_1733_248088" x1="-9.13134" y1="58.8472" x2="150.785" y2="75.2426" gradientUnits="userSpaceOnUse">
<stop offset="0.89375" stop-color="#5A8DEF"/>
</linearGradient>
<linearGradient id="paint2_linear_1733_248088" x1="60.4788" y1="34.2517" x2="67.0078" y2="122.61" gradientUnits="userSpaceOnUse">
<stop offset="0.46041" stop-color="#38A1FF"/>
<stop offset="0.9999" stop-color="#9DBFFF"/>
<stop offset="1" stop-color="#94B4F2"/>
</linearGradient>
<linearGradient id="paint3_linear_1733_248088" x1="66.1484" y1="29.0879" x2="66.1484" y2="38.6005" gradientUnits="userSpaceOnUse">
<stop stop-color="#94C9FA"/>
<stop offset="1" stop-color="#599CD8"/>
</linearGradient>
<linearGradient id="paint4_linear_1733_248088" x1="70.1349" y1="47.6339" x2="73.4137" y2="62.9338" gradientUnits="userSpaceOnUse">
<stop stop-color="#1B9FFF"/>
<stop offset="0.544343" stop-color="#189EFF"/>
<stop offset="1" stop-color="#1774FF"/>
</linearGradient>
<linearGradient id="paint5_linear_1733_248088" x1="61.4522" y1="44.5501" x2="77.7806" y2="78.7643" gradientUnits="userSpaceOnUse">
<stop offset="0.0486117" stop-color="#8FC1ED"/>
<stop offset="0.372917" stop-color="#1277C1"/>
<stop offset="0.716667" stop-color="#1277C1"/>
<stop offset="1" stop-color="#0D469B"/>
</linearGradient>
<linearGradient id="paint6_linear_1733_248088" x1="72.0456" y1="86.0273" x2="72.0456" y2="98.6983" gradientUnits="userSpaceOnUse">
<stop stop-color="#69A2D8"/>
<stop offset="1" stop-color="#2860A8"/>
</linearGradient>
<linearGradient id="paint7_linear_1733_248088" x1="62.3467" y1="66.748" x2="62.5572" y2="92.5065" gradientUnits="userSpaceOnUse">
<stop stop-color="#8EC0ED"/>
<stop offset="1" stop-color="#296FB3"/>
</linearGradient>
<linearGradient id="paint8_linear_1733_248088" x1="63.0875" y1="32.4161" x2="69.5866" y2="120.474" gradientUnits="userSpaceOnUse">
<stop offset="0.46041" stop-color="#CAE5FF"/>
<stop offset="1" stop-color="#94B4F2"/>
</linearGradient>
</defs>
</svg>
