<svg width="24" height="24" viewBox="0 0 24 24" fill="none" xmlns="http://www.w3.org/2000/svg">
<path d="M12.9474 5.91304C12.9474 5.40878 12.5232 5 12 5C11.4768 5 11.0526 5.40878 11.0526 5.91304L11.0526 12.2305L8.88042 10.137C8.51045 9.78042 7.91061 9.78042 7.54064 10.137C7.17067 10.4936 7.17067 11.0717 7.54064 11.4282L11.3301 15.0804C11.5078 15.2516 11.7487 15.3478 12 15.3478C12.2513 15.3478 12.4922 15.2516 12.6699 15.0804L16.4594 11.4282C16.8293 11.0717 16.8293 10.4936 16.4594 10.137C16.0894 9.78042 15.4896 9.78042 15.1196 10.137L12.9474 12.2305V5.91304Z" fill="#223047"/>
<path d="M6.94737 17.1739C6.42415 17.1739 6 17.5827 6 18.087C6 18.5912 6.42415 19 6.94737 19H17.0526C17.5758 19 18 18.5912 18 18.087C18 17.5827 17.5758 17.1739 17.0526 17.1739H6.94737Z" fill="#223047"/>
</svg>
