<svg width="24" height="24" viewBox="0 0 24 24" fill="none" xmlns="http://www.w3.org/2000/svg">
<path fill-rule="evenodd" clip-rule="evenodd" d="M4.31802 4.31802C3 5.63604 3 7.75736 3 12C3 16.2426 3 18.364 4.31802 19.682C5.63604 21 7.75736 21 12 21C16.2426 21 18.364 21 19.682 19.682C21 18.364 21 16.2426 21 12C21 7.75736 21 5.63604 19.682 4.31802C18.364 3 16.2426 3 12 3C7.75736 3 5.63604 3 4.31802 4.31802ZM12 5C12.5232 5 12.9474 5.40878 12.9474 5.91304V12.2305L15.1196 10.137C15.4896 9.78042 16.0894 9.78042 16.4594 10.137C16.8293 10.4936 16.8293 11.0717 16.4594 11.4282L12.6699 15.0804C12.4922 15.2516 12.2513 15.3478 12 15.3478C11.7487 15.3478 11.5078 15.2516 11.3301 15.0804L7.54064 11.4282C7.17067 11.0717 7.17067 10.4936 7.54064 10.137C7.91061 9.78042 8.51045 9.78042 8.88042 10.137L11.0526 12.2305V5.91304C11.0526 5.40878 11.4768 5 12 5ZM6 18.087C6 17.5827 6.42415 17.1739 6.94737 17.1739H17.0526C17.5758 17.1739 18 17.5827 18 18.087C18 18.5912 17.5758 19 17.0526 19H6.94737C6.42415 19 6 18.5912 6 18.087Z" fill="#223047"/>
</svg>
