<svg width="20" height="20" viewBox="0 0 20 20" fill="none" xmlns="http://www.w3.org/2000/svg">
<g id="Icon/edit_link" clip-path="url(#clip0_2492_47008)">
<path id="Union" fill-rule="evenodd" clip-rule="evenodd" d="M5 5.60312C3.29 5.60312 1.9 6.99312 1.9 8.70312C1.9 10.4131 3.29 11.8031 5 11.8031H9V13.7031H5C2.24 13.7031 0 11.4631 0 8.70312C0 5.94313 2.24 3.70312 5 3.70312H9V5.60312H5ZM14 7.70312V9.70312H6V7.70312H14ZM17.7545 7.86424C17.86 7.75868 18.0044 7.70312 18.1433 7.70312C18.2877 7.70312 18.4266 7.75313 18.5377 7.86424L19.8375 9.16424C20.0542 9.3809 20.0542 9.7309 19.8375 9.94757L18.821 10.9642L16.738 8.8809L17.7545 7.86424ZM10 15.6198L16.1436 9.47535L18.2266 11.5587L15.1548 14.6309L12.083 17.7031H10V15.6198ZM16.6546 11.5587L16.1436 11.0476L11.111 16.0809V16.592H11.622L16.6546 11.5587ZM11 5.59313V3.71313H15C17.4795 3.71313 19.1484 5.36095 19.7877 7.20312H17.6894C17.1602 6.30895 16.1649 5.59313 15 5.59313H11Z" fill="#223047"/>
</g>
<defs>
<clipPath id="clip0_2492_47008">
<rect width="20" height="20" fill="white"/>
</clipPath>
</defs>
</svg>
