<svg width="24" height="24" viewBox="0 0 24 24" fill="none" xmlns="http://www.w3.org/2000/svg">
<g clip-path="url(#clip0_309_14570)">
<path d="M16.4 2H3.6C2.72 2 2 2.72 2 3.6V16.5515C2 17.086 2.64629 17.3537 3.02426 16.9757L5.2 14.8H16.4C17.28 14.8 18 14.08 18 13.2V3.6C18 2.72 17.28 2 16.4 2ZM16.4 13.2H5.2L3.6 14.8V3.6H16.4V13.2Z" fill="#223047"/>
<path d="M22 8.4C22 7.63 21.37 7 20.6 7H18.5V8.6H20.4V17.8L19.2 16.6H9.6V15.4069H8V16.8C8 17.57 8.63 18.2 9.4 18.2H19.2L20.9757 19.9757C21.3537 20.3537 22 20.086 22 19.5515V8.4Z" fill="#223047"/>
<path d="M10.5 12H9.5V11H10.5V12ZM11.535 8.125L11.085 8.585C10.725 8.95 10.5 9.25 10.5 10H9.5V9.75C9.5 9.2 9.725 8.7 10.085 8.335L10.705 7.705C10.89 7.525 11 7.275 11 7C11 6.45 10.55 6 10 6C9.45 6 9 6.45 9 7H8C8 5.895 8.895 5 10 5C11.105 5 12 5.895 12 7C12 7.44 11.82 7.84 11.535 8.125Z" fill="#223047"/>
</g>
<defs>
<clipPath id="clip0_309_14570">
<rect width="24" height="24" fill="white"/>
</clipPath>
</defs>
</svg>
