<svg width="24" height="24" viewBox="0 0 24 24" fill="none" xmlns="http://www.w3.org/2000/svg">
<g clip-path="url(#clip0_309_14569)">
<path d="M22 8.4C22 7.63 21.37 7 20.6 7H18.5V8.6V13.6069C18.5 14.601 17.6941 15.4069 16.7 15.4069H9.6H8V16.8C8 17.57 8.63 18.2 9.4 18.2H19.2L20.9757 19.9757C21.3537 20.3537 22 20.086 22 19.5515V8.4Z" fill="#223047"/>
<path fill-rule="evenodd" clip-rule="evenodd" d="M3.6 2H16.4C17.28 2 18 2.72 18 3.6V13.2C18 14.08 17.28 14.8 16.4 14.8H5.2L3.02426 16.9757C2.64629 17.3537 2 17.086 2 16.5515V3.6C2 2.72 2.72 2 3.6 2ZM9.5 11V12H10.5V11H9.5ZM11.085 8.585L11.535 8.125C11.82 7.84 12 7.44 12 7C12 5.895 11.105 5 10 5C8.895 5 8 5.895 8 7H9C9 6.45 9.45 6 10 6C10.55 6 11 6.45 11 7C11 7.275 10.89 7.525 10.705 7.705L10.085 8.335C9.725 8.7 9.5 9.2 9.5 9.75V10H10.5C10.5 9.25 10.725 8.95 11.085 8.585Z" fill="#223047"/>
</g>
<defs>
<clipPath id="clip0_309_14569">
<rect width="24" height="24" fill="white"/>
</clipPath>
</defs>
</svg>
