<svg width="24" height="24" viewBox="0 0 24 24" fill="none" xmlns="http://www.w3.org/2000/svg">
<g clip-path="url(#clip0_56_1387)">
<path d="M12 1.825C6.38335 1.825 1.825 6.38335 1.825 12C1.825 17.6166 6.38335 22.175 12 22.175C17.6166 22.175 22.175 17.6166 22.175 12C22.175 6.38335 17.6166 1.825 12 1.825ZM12 19.825C7.67665 19.825 4.175 16.3233 4.175 12C4.175 10.2615 4.74365 8.65894 5.70757 7.36505L16.6349 18.2924C15.3411 19.2564 13.7385 19.825 12 19.825ZM18.2924 16.6349L7.36505 5.70757C8.65894 4.74365 10.2615 4.175 12 4.175C16.3233 4.175 19.825 7.67665 19.825 12C19.825 13.7385 19.2564 15.3411 18.2924 16.6349Z" fill="#223047" stroke="#223047" stroke-width="0.35"/>
</g>
<defs>
<clipPath id="clip0_56_1387">
<rect width="24" height="24" fill="white"/>
</clipPath>
</defs>
</svg>
