<svg width="24" height="24" viewBox="0 0 24 24" fill="none" xmlns="http://www.w3.org/2000/svg">
<g id="Icon/Google_translation">
<path id="Union" fill-rule="evenodd" clip-rule="evenodd" d="M10.963 18.4703H4.0003C3.43723 18.4703 2.96308 18.2754 2.57785 17.8858C2.19262 17.4962 2 17.0299 2 16.487V4.00534C2 3.44342 2.19272 2.96871 2.57816 2.58123C2.96364 2.19374 3.43805 2 4.00139 2H9.96171L10.816 4.50037H20.4238C21.2943 4.50037 22 5.17619 22 6.00986V20.011C22 20.8446 21.2943 21.5204 20.4238 21.5204H11.9796L10.963 18.4703ZM12.9176 20.2516H20.4238C20.5626 20.2516 20.6751 20.1439 20.6751 20.011V6.00986C20.6751 5.87696 20.5626 5.76922 20.4238 5.76922H11.2089L12.312 9.56496H14.2717V8.52487H15.2887V9.56496H18.9104V10.5978H17.6631C17.5003 11.2098 17.2508 11.8197 16.9145 12.4276C16.5782 13.0355 16.1834 13.5953 15.7301 14.1071L18.4498 16.761L17.726 17.4848L15.0283 14.8089L14.1509 15.7301L14.9405 18.4718L12.9176 20.2516ZM7.12374 14.1071C8.27805 14.1071 9.22241 13.7342 9.9568 12.9885C10.6912 12.2428 11.0584 11.285 11.0584 10.1152C11.0584 9.99827 11.0511 9.8886 11.0364 9.78625C11.0218 9.68389 11.0039 9.56692 10.9827 9.43532H7.04279V10.9674H9.2835C9.14786 11.4333 8.88932 11.7953 8.50785 12.0532C8.12638 12.3112 7.66987 12.4402 7.13833 12.4402C6.49052 12.4402 5.94007 12.2085 5.48701 11.7452C5.03396 11.282 4.80744 10.7111 4.80744 10.0328C4.80744 9.34202 5.03683 8.76503 5.49563 8.30177C5.95441 7.83852 6.50886 7.60689 7.15897 7.60689C7.45901 7.60689 7.73969 7.65812 8.00098 7.76057C8.26228 7.86301 8.50068 8.024 8.7162 8.24352L9.93978 7.08848C9.59123 6.71656 9.17069 6.4335 8.67814 6.23929C8.1856 6.04507 7.67033 5.94796 7.13234 5.94796C6.00644 5.94796 5.05236 6.34641 4.27007 7.14331C3.48779 7.94021 3.09665 8.90161 3.09665 10.0275C3.09665 11.1534 3.48762 12.1148 4.26955 12.9117C5.05148 13.7086 6.00288 14.1071 7.12374 14.1071ZM13.7781 14.5896L14.3483 14.0851C14.1144 13.8073 13.9024 13.5368 13.7123 13.2736C13.5222 13.0104 13.3394 12.7253 13.1639 12.4182L13.7781 14.5896ZM15.0283 13.3175C15.5023 12.7769 15.8621 12.258 16.1076 11.7606C16.3531 11.2632 16.5197 10.8756 16.6074 10.5978H12.6375L12.9176 11.6286H13.9222C14.0473 11.8919 14.1996 12.1637 14.379 12.4441C14.5584 12.7244 14.7748 13.0156 15.0283 13.3175Z" fill="#223047"/>
</g>
</svg>
