<svg width="60" height="60" viewBox="0 0 60 60" fill="none" xmlns="http://www.w3.org/2000/svg">
<path fill-rule="evenodd" clip-rule="evenodd" d="M5.21875 49.7812C6.19792 50.7604 7.375 51.25 8.75 51.25H32.5V46.25H8.75V11.25H50V27.5L55 32.5V11.25C55 9.875 54.5104 8.69792 53.5312 7.71875C52.5521 6.73958 51.375 6.25 50 6.25H8.75C7.375 6.25 6.19792 6.73958 5.21875 7.71875C4.23958 8.69792 3.75 9.875 3.75 11.25V46.25C3.75 47.625 4.23958 48.8021 5.21875 49.7812ZM31.875 41.25L42.5 30L36.25 23.75L27.5 35L21.25 28.75L12.5 41.25H31.875ZM50 42.0625V56.25H45V42.0625L40 47.0625L36.4375 43.5625L47.5 32.5L58.5 43.5L55 47.0625L50 42.0625Z" fill="#BABDC2"/>
</svg>
