<svg width="22" height="22" viewBox="0 0 22 22" fill="none" xmlns="http://www.w3.org/2000/svg">
<path fill-rule="evenodd" clip-rule="evenodd" d="M1.40002 0.400002C1.95231 0.400002 2.40002 0.847717 2.40002 1.4V19.6H20.6C21.1523 19.6 21.6 20.0477 21.6 20.6C21.6 21.1523 21.1523 21.6 20.6 21.6H1.40002C0.84774 21.6 0.400024 21.1523 0.400024 20.6V1.4C0.400024 0.847717 0.84774 0.400002 1.40002 0.400002ZM19.5073 6.09289C19.8978 6.48342 19.8978 7.11658 19.5073 7.50711L14.1071 12.9072C13.7166 13.2978 13.0834 13.2978 12.6929 12.9072L10.4 10.6143L6.90713 14.1072C6.51661 14.4978 5.88344 14.4978 5.49292 14.1072C5.10239 13.7167 5.10239 13.0835 5.49292 12.693L9.69292 8.49302C10.0834 8.1025 10.7166 8.1025 11.1071 8.49302L13.4 10.7859L18.093 6.09289C18.4836 5.70237 19.1167 5.70237 19.5073 6.09289Z" fill="#223047"/>
</svg>
