<svg width="24" height="24" viewBox="0 0 24 24" fill="none" xmlns="http://www.w3.org/2000/svg">
<g clip-path="url(#clip0_56_1404)">
<path d="M11 9.075H11.175V8.9V7V6.825H11H7C4.14335 6.825 1.825 9.14335 1.825 12C1.825 14.8566 4.14335 17.175 7 17.175H11H11.175V17V15.1V14.925H11H7C5.38665 14.925 4.075 13.6134 4.075 12C4.075 10.3866 5.38665 9.075 7 9.075H11ZM7.825 13V13.175H8H16H16.175V13V11V10.825H16H8H7.825V11V13ZM13 6.825H12.825V7V8.9V9.075H13H17C18.6133 9.075 19.925 10.3866 19.925 12C19.925 13.6134 18.6133 14.925 17 14.925H13H12.825V15.1V17V17.175H13H17C19.8566 17.175 22.175 14.8566 22.175 12C22.175 9.14335 19.8566 6.825 17 6.825H13Z" fill="#223047" stroke="#223047" stroke-width="0.35"/>
</g>
<defs>
<clipPath id="clip0_56_1404">
<rect width="24" height="24" fill="white"/>
</clipPath>
</defs>
</svg>
