<svg width="24" height="24" viewBox="0 0 24 24" fill="none" xmlns="http://www.w3.org/2000/svg">
<path d="M18.1436 9.34444L18.6546 9.85556L13.622 14.8889H13.111V14.3778L18.1436 9.34444ZM20.1433 6C20.0044 6 19.86 6.05556 19.7545 6.16111L18.738 7.17778L20.821 9.26111L21.8375 8.24444C22.0542 8.02778 22.0542 7.67778 21.8375 7.46111L20.5377 6.16111C20.4266 6.05 20.2877 6 20.1433 6ZM18.1436 7.77222L12 13.9167V16H14.083L20.2266 9.85556L18.1436 7.77222Z" fill="#223047"/>
<path fill-rule="evenodd" clip-rule="evenodd" d="M2.10001 2.10001H11.3728L16.7478 7.47498L15.475 8.74777L10.6272 3.90001H3.90001V10.6272L13.2227 19.95L19.95 13.2227L18.8636 12.1364L20.1364 10.8636L22.4955 13.2227L13.2227 22.4955L2.10001 11.3728V2.10001Z" fill="#223047"/>
</svg>
