<svg width="36" height="15" viewBox="0 0 36 15" fill="none" xmlns="http://www.w3.org/2000/svg">
<rect x="0.5" y="0.5" width="35" height="14" rx="3.5" stroke="#3680F7"/>
<path d="M11.4043 12H9.93799L5.58984 5.72217H5.50732V12H3.85693V2.80859H5.34229L9.67773 9.09277H9.76025V2.80859H11.4043V12ZM13.1118 2.80859H19.085V4.19873H14.7622V6.7124H18.7739V8.08984H14.7622V10.6099H19.1104V12H13.1118V2.80859ZM20.0181 2.80859H21.7827L23.4521 9.5752H23.5347L25.3057 2.80859H26.937L28.7144 9.58154H28.7905L30.4536 2.80859H32.2246L29.6411 12H27.9971L26.1626 5.53174H26.0864L24.2456 12H22.6079L20.0181 2.80859Z" fill="#3680F7"/>
</svg>
