<svg width="20" height="20" viewBox="0 0 20 20" fill="none" xmlns="http://www.w3.org/2000/svg">
<path fill-rule="evenodd" clip-rule="evenodd" d="M11.6115 3.99971C11.4937 3.96228 11.3732 3.92889 11.2499 3.89967V3.33301C11.2499 2.64134 10.6916 2.08301 9.99992 2.08301C9.30825 2.08301 8.74992 2.64134 8.74992 3.33301V3.89967C6.36659 4.46634 4.99992 6.59967 4.99992 9.16634V13.333L3.33325 14.9997V15.833H16.6666V14.9997L14.9999 13.333V9.38789C14.374 9.24584 13.7976 8.97331 13.3009 8.60041C13.3224 8.78503 13.3333 8.97403 13.3333 9.16634V14.1663H6.66659V9.16634C6.66659 7.09967 7.92492 5.41634 9.99992 5.41634C10.594 5.41634 11.1212 5.55433 11.571 5.79981C11.5244 5.54007 11.5001 5.27259 11.5001 4.99943C11.5001 4.65583 11.5386 4.32123 11.6115 3.99971ZM11.6666 16.6663C11.6666 17.583 10.9166 18.333 9.99992 18.333C9.08325 18.333 8.33325 17.583 8.33325 16.6663H11.6666Z" fill="#223047"/>
<circle cx="14.9999" cy="5.83366" r="2.91667" fill="#EA5A5B"/>
</svg>
