<svg width="24" height="24" viewBox="0 0 24 24" fill="none" xmlns="http://www.w3.org/2000/svg">
<path d="M7.06927 17.9422L12.6269 12.5703C13.2316 11.964 13.6979 11.4656 14.0259 11.0751C14.359 10.6846 14.6127 10.3019 14.7869 9.92678C14.9611 9.54656 15.0508 9.14322 15.0559 8.71676C15.0508 8.23378 14.9304 7.80989 14.6946 7.44509C14.464 7.08028 14.1438 6.80026 13.7338 6.60501C13.3238 6.40976 12.86 6.31214 12.3425 6.31214C11.8095 6.31214 11.3432 6.42004 10.9435 6.63584C10.5437 6.8465 10.2337 7.14965 10.0133 7.54528C9.79811 7.94091 9.69049 8.40334 9.69049 8.93256H7.00009C6.99496 7.95119 7.22044 7.08799 7.67653 6.34297C8.13774 5.59281 8.77575 5.01477 9.59056 4.60886C10.4054 4.20295 11.3355 4 12.3809 4C13.4314 4 14.3641 4.19525 15.1789 4.58574C15.9989 4.97624 16.6343 5.52087 17.0853 6.21965C17.5362 6.9133 17.7617 7.69685 17.7617 8.57033C17.7617 9.1869 17.6438 9.77778 17.4081 10.343C17.1775 10.903 16.7778 11.5273 16.209 12.2158C15.6453 12.9043 14.8433 13.7418 13.803 14.7283L11.0126 17.5106V17.6262H18V20H7.07695L7.06927 17.9422Z" fill="#223047"/>
</svg>
