<svg width="24" height="24" viewBox="0 0 24 24" fill="none" xmlns="http://www.w3.org/2000/svg">
<path d="M12.4786 20C11.2438 20 10.1398 19.815 9.16674 19.4449C8.19367 19.0697 7.4283 18.545 6.87064 17.8707C6.31867 17.1965 6.02845 16.4259 6 15.5589H9.17527C9.20372 15.9747 9.36306 16.3397 9.65327 16.654C9.94917 16.9683 10.3418 17.2117 10.8312 17.384C11.3206 17.5564 11.8669 17.6426 12.47 17.6426C13.1074 17.6426 13.6764 17.5437 14.1772 17.346C14.6836 17.1483 15.0763 16.8745 15.3551 16.5247C15.6396 16.1749 15.7819 15.7744 15.7819 15.3232C15.7819 14.8517 15.6368 14.4335 15.3466 14.0684C15.062 13.7034 14.6438 13.4195 14.0918 13.2167C13.5455 13.0139 12.8997 12.9125 12.1542 12.9125H10.6007V10.7529H12.1542C12.7688 10.7529 13.3151 10.6565 13.7931 10.4639C14.2768 10.2712 14.6495 10.0051 14.9112 9.6654C15.1787 9.32066 15.3124 8.92269 15.3124 8.47148C15.3124 8.04056 15.1958 7.66033 14.9625 7.3308C14.7348 6.9962 14.4076 6.73764 13.9809 6.55513C13.5598 6.37262 13.0704 6.28137 12.5127 6.28137C11.9551 6.28137 11.4429 6.37009 10.9763 6.54753C10.5097 6.7199 10.1313 6.96831 9.84106 7.29278C9.55653 7.61217 9.40289 7.98226 9.38013 8.40304H6.36703C6.3898 7.55133 6.67432 6.79087 7.2206 6.12167C7.76689 5.4474 8.5038 4.92522 9.43134 4.55513C10.3589 4.18504 11.3917 4 12.5298 4C13.6793 4 14.695 4.19265 15.577 4.57795C16.4647 4.96324 17.1476 5.48542 17.6256 6.14449C18.1093 6.79848 18.3483 7.52091 18.3426 8.31179C18.3483 8.88973 18.2202 9.41191 17.9585 9.87833C17.6967 10.3447 17.3212 10.7326 16.8318 11.0418C16.3481 11.3511 15.7847 11.564 15.1417 11.6806V11.8023C15.9554 11.9037 16.6554 12.1166 17.2415 12.4411C17.8276 12.7655 18.2686 13.1888 18.5645 13.711C18.8604 14.2281 19.0055 14.8137 18.9998 15.4677C19.0055 16.3295 18.7267 17.1052 18.1633 17.7947C17.6057 18.4842 16.8289 19.0241 15.8331 19.4144C14.8373 19.8048 13.7191 20 12.4786 20Z" fill="#223047"/>
</svg>
