<svg width="24" height="24" viewBox="0 0 24 24" fill="none" xmlns="http://www.w3.org/2000/svg">
<g clip-path="url(#clip0_56_1084)">
<path fill-rule="evenodd" clip-rule="evenodd" d="M20.85 4.52L21.9 8.89C22.15 9.91 21.92 10.96 21.28 11.78C21.2264 11.8471 21.1592 11.9096 21.0936 11.9707C21.0615 12.0007 21.0296 12.0304 21 12.06V19C21 20.1 20.1 21 19 21H5.00001C3.90001 21 3.00001 20.1 3.00001 19V12.06C2.96401 12.02 2.92481 11.9832 2.88561 11.9464C2.82681 11.8912 2.76801 11.836 2.72001 11.77C2.08001 10.95 1.86001 9.91 2.10001 8.89L3.15001 4.52C3.36001 3.63 4.15001 3 5.05001 3H18.94C19.85 3 20.63 3.62 20.85 4.52ZM19.96 9.36L18.91 4.99L16.98 5L17.56 9.86C17.63 10.51 18.16 11 18.77 11C19.27 11 19.57 10.71 19.71 10.53C19.97 10.2 20.06 9.78 19.96 9.36ZM14.96 5H13V9.69C13 10.41 13.55 11 14.22 11C14.63 11 14.95 10.85 15.17 10.59C15.43 10.3 15.55 9.91 15.5 9.52L14.96 5ZM9.04001 5L8.49001 9.52C8.45001 9.91 8.57001 10.3 8.82001 10.59C9.06001 10.85 9.37001 11 9.71001 11C10.45 11 11 10.41 11 9.69V5H9.04001ZM5.05001 5L4.04001 9.36C3.94001 9.78 4.03001 10.21 4.30001 10.53C4.43001 10.71 4.74001 11 5.23001 11C5.84001 11 6.36001 10.51 6.44001 9.86L7.02001 5H5.05001ZM5.00001 12.97L5 12.97C5.02807 12.9736 5.05491 12.9783 5.08138 12.983C5.13035 12.9916 5.17807 13 5.23 13C6.1 13 6.89 12.64 7.47 12.05C8.07 12.65 8.87 13 9.78 13C10.65 13 11.43 12.64 12.01 12.07C12.6 12.64 13.4 13 14.3 13C15.14 13 15.94 12.65 16.54 12.05C17.12 12.64 17.91 13 18.78 13C18.8319 13 18.8796 12.9916 18.9286 12.983C18.9551 12.9783 18.9819 12.9736 19.01 12.97L19.01 19V12.97C18.9819 12.9735 18.9551 12.9782 18.9286 12.9829C18.8797 12.9916 18.8319 13 18.78 13C17.91 13 17.12 12.64 16.54 12.05C15.94 12.65 15.14 13 14.3 13C13.4 13 12.6 12.64 12.01 12.07C11.43 12.64 10.65 13 9.78001 13C8.87001 13 8.07001 12.65 7.47001 12.05C6.89001 12.64 6.10001 13 5.23001 13C5.17808 13 5.13036 12.9916 5.08139 12.9829C5.05492 12.9782 5.02808 12.9735 5.00001 12.97Z" fill="#223047"/>
</g>
<defs>
<clipPath id="clip0_56_1084">
<rect width="24" height="24" fill="white"/>
</clipPath>
</defs>
</svg>
