<svg width="24" height="24" viewBox="0 0 24 24" fill="none" xmlns="http://www.w3.org/2000/svg">
<path d="M13.2159 20.4005H10.7842V18.0004H13.2159V20.4005ZM15.7327 11.0999L14.6384 12.204C13.763 13.0801 13.2159 13.8001 13.2159 15.6002H10.7842V15.0002C10.7842 13.6801 11.3313 12.48 12.2067 11.604L13.7144 10.0919C14.1642 9.65986 14.4317 9.05983 14.4317 8.39979C14.4317 7.07971 13.3375 5.99964 12 5.99964C10.6626 5.99964 9.56829 7.07971 9.56829 8.39979H7.13657C7.13657 5.74763 9.31296 3.5995 12 3.5995C14.6871 3.5995 16.8635 5.74763 16.8635 8.39979C16.8635 9.45585 16.4257 10.4159 15.7327 11.0999Z" fill="#223047"/>
</svg>
