<svg width="18" height="18" viewBox="0 0 18 18" fill="none" xmlns="http://www.w3.org/2000/svg">
<g id="Icon/reset_edit" opacity="0.4">
<path id="Union" fill-rule="evenodd" clip-rule="evenodd" d="M14.025 7.5H15.5812C15.2437 5.9875 14.4656 4.73438 13.2469 3.74063C12.0281 2.74688 10.6125 2.25 9 2.25C8.0625 2.25 7.18438 2.42813 6.36563 2.78438C5.54688 3.14062 4.83438 3.62188 4.22813 4.22813C3.62188 4.83438 3.14062 5.54688 2.78438 6.36563C2.42813 7.18438 2.25 8.0625 2.25 9C2.25 10.0625 2.475 11.0469 2.925 11.9531C3.375 12.8594 3.9875 13.625 4.7625 14.25H3V15.75H7.5V11.25H6V13.3125C5.3125 12.8375 4.76562 12.225 4.35938 11.475C3.95312 10.725 3.75 9.9 3.75 9C3.75 7.5375 4.25937 6.29688 5.27812 5.27812C6.29688 4.25937 7.5375 3.75 9 3.75C10.2 3.75 11.2563 4.1 12.1688 4.8C13.0813 5.5 13.7 6.4 14.025 7.5ZM9 15.525V13.3926L13.8938 8.91972C14.0063 8.8157 14.1313 8.74058 14.2688 8.69435C14.4062 8.64812 14.5437 8.625 14.6813 8.625C14.8312 8.625 14.975 8.65101 15.1125 8.70302C15.25 8.75502 15.375 8.83304 15.4875 8.93706L16.1813 9.57852C16.2812 9.68254 16.3594 9.79812 16.4156 9.92525C16.4719 10.0524 16.5 10.1795 16.5 10.3067C16.5 10.4338 16.475 10.5638 16.425 10.6967C16.375 10.8296 16.2938 10.9481 16.1813 11.0521L11.3063 15.525H9ZM10.125 14.4848H10.8375L13.8563 11.7109L13.1625 11.0695L10.125 13.826V14.4848Z" fill="#3680F7"/>
</g>
</svg>
