<svg width="53" height="52" viewBox="0 0 53 52" fill="none" xmlns="http://www.w3.org/2000/svg">
<path d="M4.17773 13.1367C3.44857 13.1367 2.8265 12.9385 2.31152 12.542C1.79655 12.1455 1.40234 11.5667 1.12891 10.8057C0.855469 10.0446 0.71875 9.1263 0.71875 8.05078C0.71875 6.98893 0.855469 6.07747 1.12891 5.31641C1.40234 4.55078 1.79655 3.96745 2.31152 3.56641C2.83105 3.16536 3.45312 2.96484 4.17773 2.96484C4.89779 2.96484 5.51758 3.16536 6.03711 3.56641C6.55664 3.96745 6.95312 4.55078 7.22656 5.31641C7.5 6.07747 7.63672 6.98893 7.63672 8.05078C7.63672 9.1263 7.50228 10.0446 7.2334 10.8057C6.96452 11.5667 6.57031 12.1455 6.05078 12.542C5.53125 12.9385 4.9069 13.1367 4.17773 13.1367ZM4.17773 12.043C4.65169 12.043 5.05957 11.888 5.40137 11.5781C5.74316 11.2682 6.00065 10.8148 6.17383 10.2178C6.34701 9.62077 6.43359 8.89844 6.43359 8.05078C6.43359 7.20312 6.34473 6.47852 6.16699 5.87695C5.98926 5.27539 5.73177 4.81738 5.39453 4.50293C5.05729 4.18848 4.65169 4.03125 4.17773 4.03125C3.70378 4.03125 3.29818 4.18848 2.96094 4.50293C2.6237 4.81738 2.36393 5.27539 2.18164 5.87695C1.99935 6.47852 1.9082 7.20312 1.9082 8.05078C1.9082 8.89844 1.99935 9.62077 2.18164 10.2178C2.36393 10.8148 2.62142 11.2682 2.9541 11.5781C3.29134 11.888 3.69922 12.043 4.17773 12.043ZM12.7773 13H11.5332V4.38672H11.4785L9.07227 5.98633V4.74219L11.5332 3.10156H12.7773V13ZM15.6758 13.082C15.5163 13.082 15.3682 13.041 15.2314 12.959C15.0993 12.877 14.9922 12.7699 14.9102 12.6377C14.8327 12.501 14.7962 12.3529 14.8008 12.1934C14.7962 12.0384 14.8327 11.8926 14.9102 11.7559C14.9922 11.6191 15.0993 11.512 15.2314 11.4346C15.3682 11.3571 15.5163 11.3184 15.6758 11.3184C15.8353 11.3184 15.9811 11.3571 16.1133 11.4346C16.25 11.512 16.3571 11.6191 16.4346 11.7559C16.512 11.8926 16.5508 12.0384 16.5508 12.1934C16.5508 12.3529 16.512 12.501 16.4346 12.6377C16.3571 12.7699 16.25 12.877 16.1133 12.959C15.9811 13.041 15.8353 13.082 15.6758 13.082Z" fill="#223047"/>
<rect x="24.0078" y="7" width="28" height="2" fill="#223047"/>
<path d="M4.17773 31.1367C3.44857 31.1367 2.8265 30.9385 2.31152 30.542C1.79655 30.1455 1.40234 29.5667 1.12891 28.8057C0.855469 28.0446 0.71875 27.1263 0.71875 26.0508C0.71875 24.9889 0.855469 24.0775 1.12891 23.3164C1.40234 22.5508 1.79655 21.9674 2.31152 21.5664C2.83105 21.1654 3.45312 20.9648 4.17773 20.9648C4.89779 20.9648 5.51758 21.1654 6.03711 21.5664C6.55664 21.9674 6.95312 22.5508 7.22656 23.3164C7.5 24.0775 7.63672 24.9889 7.63672 26.0508C7.63672 27.1263 7.50228 28.0446 7.2334 28.8057C6.96452 29.5667 6.57031 30.1455 6.05078 30.542C5.53125 30.9385 4.9069 31.1367 4.17773 31.1367ZM4.17773 30.043C4.65169 30.043 5.05957 29.888 5.40137 29.5781C5.74316 29.2682 6.00065 28.8148 6.17383 28.2178C6.34701 27.6208 6.43359 26.8984 6.43359 26.0508C6.43359 25.2031 6.34473 24.4785 6.16699 23.877C5.98926 23.2754 5.73177 22.8174 5.39453 22.5029C5.05729 22.1885 4.65169 22.0312 4.17773 22.0312C3.70378 22.0312 3.29818 22.1885 2.96094 22.5029C2.6237 22.8174 2.36393 23.2754 2.18164 23.877C1.99935 24.4785 1.9082 25.2031 1.9082 26.0508C1.9082 26.8984 1.99935 27.6208 2.18164 28.2178C2.36393 28.8148 2.62142 29.2682 2.9541 29.5781C3.29134 29.888 3.69922 30.043 4.17773 30.043ZM9.26367 30.0977L12.6406 26.543C13.0827 26.069 13.4199 25.6862 13.6523 25.3945C13.8893 25.1029 14.0693 24.8249 14.1924 24.5605C14.3154 24.2917 14.377 24.0091 14.377 23.7129C14.377 23.3802 14.2904 23.0885 14.1172 22.8379C13.944 22.5827 13.707 22.3844 13.4062 22.2432C13.11 22.1019 12.7773 22.0312 12.4082 22.0312C12.0208 22.0312 11.6813 22.1087 11.3896 22.2637C11.1025 22.4186 10.8792 22.6374 10.7197 22.9199C10.5602 23.1979 10.4805 23.5215 10.4805 23.8906H9.31836C9.3138 23.3164 9.44596 22.8083 9.71484 22.3662C9.98828 21.9242 10.3643 21.5801 10.8428 21.334C11.3213 21.0879 11.8568 20.9648 12.4492 20.9648C13.0371 20.9648 13.5635 21.0856 14.0283 21.3271C14.4977 21.5687 14.8646 21.8991 15.1289 22.3184C15.3932 22.7376 15.5254 23.2025 15.5254 23.7129C15.5208 24.0911 15.4502 24.4535 15.3135 24.7998C15.1813 25.1416 14.9535 25.5221 14.6299 25.9414C14.3063 26.3607 13.8483 26.8757 13.2559 27.4863L10.9863 29.8242V29.9062H15.7031V31H9.27734L9.26367 30.0977ZM18.3418 31.082C18.1823 31.082 18.0342 31.041 17.8975 30.959C17.7653 30.877 17.6582 30.7699 17.5762 30.6377C17.4987 30.501 17.4622 30.3529 17.4668 30.1934C17.4622 30.0384 17.4987 29.8926 17.5762 29.7559C17.6582 29.6191 17.7653 29.512 17.8975 29.4346C18.0342 29.3571 18.1823 29.3184 18.3418 29.3184C18.5013 29.3184 18.6471 29.3571 18.7793 29.4346C18.916 29.512 19.0231 29.6191 19.1006 29.7559C19.1781 29.8926 19.2168 30.0384 19.2168 30.1934C19.2168 30.3529 19.1781 30.501 19.1006 30.6377C19.0231 30.7699 18.916 30.877 18.7793 30.959C18.6471 31.041 18.5013 31.082 18.3418 31.082Z" fill="#223047"/>
<rect x="24.0078" y="25" width="28" height="2" fill="#223047"/>
<path d="M4.17773 49.1367C3.44857 49.1367 2.8265 48.9385 2.31152 48.542C1.79655 48.1455 1.40234 47.5667 1.12891 46.8057C0.855469 46.0446 0.71875 45.1263 0.71875 44.0508C0.71875 42.9889 0.855469 42.0775 1.12891 41.3164C1.40234 40.5508 1.79655 39.9674 2.31152 39.5664C2.83105 39.1654 3.45312 38.9648 4.17773 38.9648C4.89779 38.9648 5.51758 39.1654 6.03711 39.5664C6.55664 39.9674 6.95312 40.5508 7.22656 41.3164C7.5 42.0775 7.63672 42.9889 7.63672 44.0508C7.63672 45.1263 7.50228 46.0446 7.2334 46.8057C6.96452 47.5667 6.57031 48.1455 6.05078 48.542C5.53125 48.9385 4.9069 49.1367 4.17773 49.1367ZM4.17773 48.043C4.65169 48.043 5.05957 47.888 5.40137 47.5781C5.74316 47.2682 6.00065 46.8148 6.17383 46.2178C6.34701 45.6208 6.43359 44.8984 6.43359 44.0508C6.43359 43.2031 6.34473 42.4785 6.16699 41.877C5.98926 41.2754 5.73177 40.8174 5.39453 40.5029C5.05729 40.1885 4.65169 40.0312 4.17773 40.0312C3.70378 40.0312 3.29818 40.1885 2.96094 40.5029C2.6237 40.8174 2.36393 41.2754 2.18164 41.877C1.99935 42.4785 1.9082 43.2031 1.9082 44.0508C1.9082 44.8984 1.99935 45.6208 2.18164 46.2178C2.36393 46.8148 2.62142 47.2682 2.9541 47.5781C3.29134 47.888 3.69922 48.043 4.17773 48.043ZM12.6953 49.1367C12.0436 49.1367 11.4603 49.0273 10.9453 48.8086C10.4349 48.5898 10.0293 48.2822 9.72852 47.8857C9.42773 47.4847 9.26823 47.0267 9.25 46.5117H10.4941C10.5169 46.8216 10.6263 47.0905 10.8223 47.3184C11.0228 47.5462 11.2826 47.724 11.6016 47.8516C11.9251 47.9792 12.2852 48.043 12.6816 48.043C13.1146 48.043 13.502 47.9701 13.8438 47.8242C14.1901 47.6784 14.459 47.4733 14.6504 47.209C14.8418 46.9447 14.9375 46.6439 14.9375 46.3066C14.9329 45.9466 14.8372 45.6276 14.6504 45.3496C14.4681 45.0671 14.1947 44.8483 13.8301 44.6934C13.4655 44.5384 13.0326 44.4609 12.5312 44.4609H11.7246V43.3809H12.5312C12.9277 43.3809 13.2809 43.3102 13.5908 43.1689C13.9053 43.0277 14.1468 42.8294 14.3154 42.5742C14.484 42.3145 14.5684 42.0182 14.5684 41.6855C14.5684 41.3574 14.4932 41.068 14.3428 40.8174C14.1924 40.5667 13.9782 40.373 13.7002 40.2363C13.4222 40.0996 13.0964 40.0312 12.7227 40.0312C12.3672 40.0358 12.0345 40.1019 11.7246 40.2295C11.4147 40.3525 11.1618 40.5326 10.9658 40.7695C10.7699 41.002 10.6628 41.2754 10.6445 41.5898H9.45508C9.47331 41.0794 9.63281 40.6237 9.93359 40.2227C10.2344 39.8216 10.6309 39.5117 11.123 39.293C11.6152 39.0742 12.153 38.9648 12.7363 38.9648C13.347 38.9648 13.8825 39.0856 14.3428 39.3271C14.8031 39.5687 15.154 39.8923 15.3955 40.2979C15.6416 40.7035 15.7624 41.1432 15.7578 41.6172C15.7624 41.9863 15.6963 42.3236 15.5596 42.6289C15.4274 42.9297 15.2337 43.1849 14.9785 43.3945C14.7233 43.6042 14.4225 43.7591 14.0762 43.8594V43.9277C14.5 43.9915 14.8669 44.1305 15.1768 44.3447C15.4912 44.5589 15.7305 44.8346 15.8945 45.1719C16.0586 45.5091 16.1406 45.8874 16.1406 46.3066C16.1406 46.8398 15.9925 47.3229 15.6963 47.7559C15.4001 48.1842 14.9876 48.5215 14.459 48.7676C13.9349 49.0137 13.347 49.1367 12.6953 49.1367ZM18.4512 49.082C18.2917 49.082 18.1436 49.041 18.0068 48.959C17.8747 48.877 17.7676 48.7699 17.6855 48.6377C17.6081 48.501 17.5716 48.3529 17.5762 48.1934C17.5716 48.0384 17.6081 47.8926 17.6855 47.7559C17.7676 47.6191 17.8747 47.512 18.0068 47.4346C18.1436 47.3571 18.2917 47.3184 18.4512 47.3184C18.6107 47.3184 18.7565 47.3571 18.8887 47.4346C19.0254 47.512 19.1325 47.6191 19.21 47.7559C19.2874 47.8926 19.3262 48.0384 19.3262 48.1934C19.3262 48.3529 19.2874 48.501 19.21 48.6377C19.1325 48.7699 19.0254 48.877 18.8887 48.959C18.7565 49.041 18.6107 49.082 18.4512 49.082Z" fill="#223047"/>
<rect x="24.0078" y="43" width="28" height="2" fill="#223047"/>
</svg>
