<svg width="53" height="52" viewBox="0 0 53 52" fill="none" xmlns="http://www.w3.org/2000/svg">
<path d="M0.253906 13L3.87695 3.10156H5.17578L8.79883 13H7.5L4.56055 4.70117H4.47852L1.53906 13H0.253906ZM7.0625 9.13086V10.2109H1.99023V9.13086H7.0625ZM10.8223 13.082C10.6628 13.082 10.5146 13.041 10.3779 12.959C10.2458 12.877 10.1387 12.7699 10.0566 12.6377C9.97917 12.501 9.94271 12.3529 9.94727 12.1934C9.94271 12.0384 9.97917 11.8926 10.0566 11.7559C10.1387 11.6191 10.2458 11.512 10.3779 11.4346C10.5146 11.3571 10.6628 11.3184 10.8223 11.3184C10.9818 11.3184 11.1276 11.3571 11.2598 11.4346C11.3965 11.512 11.5036 11.6191 11.5811 11.7559C11.6585 11.8926 11.6973 12.0384 11.6973 12.1934C11.6973 12.3529 11.6585 12.501 11.5811 12.6377C11.5036 12.7699 11.3965 12.877 11.2598 12.959C11.1276 13.041 10.9818 13.082 10.8223 13.082Z" fill="#223047"/>
<rect x="24.0078" y="7" width="28" height="2" fill="#223047"/>
<path d="M1.10156 21.1016H4.57422C5.24414 21.1016 5.80697 21.2155 6.2627 21.4434C6.72298 21.6712 7.06478 21.9857 7.28809 22.3867C7.51595 22.7832 7.6276 23.2298 7.62305 23.7266C7.62305 24.1322 7.55241 24.4762 7.41113 24.7588C7.26986 25.0368 7.07845 25.2601 6.83691 25.4287C6.59538 25.5928 6.31966 25.7181 6.00977 25.8047V25.9004C6.33333 25.9186 6.64779 26.028 6.95312 26.2285C7.26302 26.429 7.51823 26.7139 7.71875 27.083C7.91927 27.4476 8.01953 27.8783 8.01953 28.375C8.01497 28.8854 7.89421 29.3366 7.65723 29.7285C7.4248 30.1204 7.06022 30.4303 6.56348 30.6582C6.07129 30.8861 5.44922 31 4.69727 31H1.10156V21.1016ZM4.68359 29.9062C5.18034 29.9062 5.58822 29.8379 5.90723 29.7012C6.23079 29.5645 6.46549 29.3822 6.61133 29.1543C6.76172 28.9264 6.83464 28.6621 6.83008 28.3613C6.83464 28.0241 6.75033 27.7142 6.57715 27.4316C6.40853 27.1491 6.16471 26.9235 5.8457 26.7549C5.52669 26.5863 5.16211 26.502 4.75195 26.502H2.33203V29.9062H4.68359ZM4.5332 25.4355C4.88867 25.4355 5.21224 25.3649 5.50391 25.2236C5.79557 25.0824 6.02572 24.8841 6.19434 24.6289C6.36296 24.3737 6.44727 24.0775 6.44727 23.7402C6.44727 23.444 6.37891 23.1797 6.24219 22.9473C6.10547 22.7103 5.89583 22.5257 5.61328 22.3936C5.33529 22.2614 4.98893 22.1953 4.57422 22.1953H2.33203V25.4355H4.5332ZM10.4531 31.082C10.2936 31.082 10.1455 31.041 10.0088 30.959C9.87663 30.877 9.76953 30.7699 9.6875 30.6377C9.61003 30.501 9.57357 30.3529 9.57812 30.1934C9.57357 30.0384 9.61003 29.8926 9.6875 29.7559C9.76953 29.6191 9.87663 29.512 10.0088 29.4346C10.1455 29.3571 10.2936 29.3184 10.4531 29.3184C10.6126 29.3184 10.7585 29.3571 10.8906 29.4346C11.0273 29.512 11.1344 29.6191 11.2119 29.7559C11.2894 29.8926 11.3281 30.0384 11.3281 30.1934C11.3281 30.3529 11.2894 30.501 11.2119 30.6377C11.1344 30.7699 11.0273 30.877 10.8906 30.959C10.7585 31.041 10.6126 31.082 10.4531 31.082Z" fill="#223047"/>
<rect x="24.0078" y="25" width="28" height="2" fill="#223047"/>
<path d="M7.85547 42.2188C7.76432 41.7767 7.58431 41.3984 7.31543 41.084C7.04655 40.765 6.71842 40.5234 6.33105 40.3594C5.94824 40.1953 5.53581 40.1133 5.09375 40.1133C4.48763 40.1133 3.94303 40.266 3.45996 40.5713C2.98145 40.8766 2.60319 41.3255 2.3252 41.918C2.0472 42.5104 1.9082 43.2214 1.9082 44.0508C1.9082 44.8757 2.0472 45.5843 2.3252 46.1768C2.60319 46.7646 2.98145 47.2135 3.45996 47.5234C3.94303 47.8288 4.48763 47.9837 5.09375 47.9883C5.53581 47.9837 5.94824 47.9017 6.33105 47.7422C6.71842 47.5781 7.04427 47.3389 7.30859 47.0244C7.57747 46.71 7.75977 46.334 7.85547 45.8965H9.08594C8.96745 46.5573 8.72135 47.1338 8.34766 47.626C7.97396 48.1136 7.50456 48.4873 6.93945 48.7471C6.37891 49.0068 5.76367 49.1367 5.09375 49.1367C4.24609 49.1367 3.49186 48.9294 2.83105 48.5146C2.17025 48.0999 1.65299 47.5098 1.2793 46.7441C0.905599 45.974 0.71875 45.0762 0.71875 44.0508C0.71875 43.0254 0.905599 42.1299 1.2793 41.3643C1.65299 40.5941 2.17025 40.0016 2.83105 39.5869C3.49186 39.1722 4.24609 38.9648 5.09375 38.9648C5.76367 38.9648 6.37891 39.0924 6.93945 39.3477C7.50456 39.6029 7.97396 39.9766 8.34766 40.4688C8.72135 40.9609 8.96745 41.5443 9.08594 42.2188H7.85547ZM11.4922 49.082C11.3327 49.082 11.1846 49.041 11.0479 48.959C10.9157 48.877 10.8086 48.7699 10.7266 48.6377C10.6491 48.501 10.6126 48.3529 10.6172 48.1934C10.6126 48.0384 10.6491 47.8926 10.7266 47.7559C10.8086 47.6191 10.9157 47.512 11.0479 47.4346C11.1846 47.3571 11.3327 47.3184 11.4922 47.3184C11.6517 47.3184 11.7975 47.3571 11.9297 47.4346C12.0664 47.512 12.1735 47.6191 12.251 47.7559C12.3285 47.8926 12.3672 48.0384 12.3672 48.1934C12.3672 48.3529 12.3285 48.501 12.251 48.6377C12.1735 48.7699 12.0664 48.877 11.9297 48.959C11.7975 49.041 11.6517 49.082 11.4922 49.082Z" fill="#223047"/>
<rect x="24.0078" y="43" width="28" height="2" fill="#223047"/>
</svg>
