<svg width="20" height="20" viewBox="0 0 20 20" fill="none" xmlns="http://www.w3.org/2000/svg">
<g id="Icon/text_copy">
<g id="Vector">
<path d="M3.32865 19.1693H13.2986C14.2125 19.1693 14.9603 18.419 14.9603 17.502V5.83137C14.9603 4.91439 14.2125 4.16413 13.2986 4.16413H3.32865C2.41474 4.16413 1.66699 4.91439 1.66699 5.83137V17.502C1.66699 18.419 2.41474 19.1693 3.32865 19.1693ZM3.32865 5.83137H13.2986V17.502H3.32865V5.83137Z" fill="#223047"/>
<path d="M16.6281 2.50318L6.65825 2.54721L6.67706 3.38079L5.01541 3.38708L4.99661 2.5535C4.99316 1.63653 5.73808 0.883443 6.65198 0.879984L16.6218 0.835949C17.5358 0.83249 18.2863 1.57991 18.2898 2.49688L18.3336 14.1675C18.3371 15.0844 17.5922 15.8375 16.6783 15.841L15.8475 15.8599L15.8412 14.1926L16.672 14.1738L16.6281 2.50318Z" fill="#223047"/>
</g>
</g>
</svg>
