<svg width="24" height="24" viewBox="0 0 24 24" fill="none" xmlns="http://www.w3.org/2000/svg">
<g clip-path="url(#clip0_56_1267)">
<rect opacity="0.4" y="2.51693" width="24.0003" height="1.34764" fill="#223047"/>
<rect opacity="0.4" y="5.03353" width="24.0003" height="1.34764" fill="#223047"/>
<rect opacity="0.4" width="24.0003" height="1.34764" fill="#223047"/>
<rect opacity="0.4" y="7.55013" width="24.0003" height="1.34764" fill="#223047"/>
<rect opacity="0.4" y="15.0999" width="24.0003" height="1.34764" fill="#223047"/>
<rect opacity="0.4" y="12.5833" width="24.0003" height="1.34764" fill="#223047"/>
<rect opacity="0.4" y="10.0667" width="24.0003" height="1.34764" fill="#223047"/>
<rect opacity="0.4" y="17.6165" width="24.0003" height="1.34764" fill="#223047"/>
<rect opacity="0.4" y="20.1331" width="24.0003" height="1.34764" fill="#223047"/>
<rect opacity="0.4" y="22.6497" width="24.0003" height="1.34764" fill="#223047"/>
<path fill-rule="evenodd" clip-rule="evenodd" d="M13.0745 16.9207L13.9104 18.9639H19.9329L13.9174 5.0332H10.0821L4.06656 18.9639H10.0891L10.9249 16.9207H13.0745Z" fill="white"/>
<path d="M9.67782 15.6356H14.3214L15.1572 17.6787H17.1075L12.6961 7.46291H11.3031L6.89169 17.6787H8.84198L9.67782 15.6356ZM11.9996 9.30175L13.7363 13.9639H10.2629L11.9996 9.30175Z" fill="#223047"/>
</g>
<defs>
<clipPath id="clip0_56_1267">
<rect width="24" height="24" fill="white"/>
</clipPath>
</defs>
</svg>
