<svg width="24" height="24" viewBox="0 0 24 24" fill="none" xmlns="http://www.w3.org/2000/svg">
<path fill-rule="evenodd" clip-rule="evenodd" d="M19.35 9.04C18.67 5.59 15.64 3 12 3C9.11 3 6.6 4.64 5.35 7.04C2.34 7.36 0 9.91 0 13C0 16.31 2.69 19 6 19H11.5V17H6C3.79 17 2 15.21 2 13C2 10.95 3.53 9.24 5.56 9.03L6.63 8.92L7.13 7.97C8.08 6.14 9.94 5 12 5C14.62 5 16.88 6.86 17.39 9.43L17.69 10.93L18.9051 10.9949L20.7518 9.43C20.5 9 19.5 9 19.35 9.04ZM8 12H10.55V15H13.45V12H16L12 8L8 12ZM14 17.3568V20.2H17.075L23.575 14.2362C23.725 14.0975 23.8333 13.9395 23.9 13.7623C23.9667 13.5851 24 13.4117 24 13.2422C24 13.0727 23.9625 12.9032 23.8875 12.7337C23.8125 12.5642 23.7083 12.4101 23.575 12.2714L22.65 11.4161C22.5 11.2774 22.3333 11.1734 22.15 11.104C21.9667 11.0347 21.775 11 21.575 11C21.3917 11 21.2083 11.0308 21.025 11.0925C20.8417 11.1541 20.675 11.2543 20.525 11.393L14 17.3568ZM16.45 18.8131H15.5V17.9347L19.55 14.2593L20.475 15.1146L16.45 18.8131Z" fill="#223047"/>
</svg>
