<svg width="24" height="24" viewBox="0 0 24 24" fill="none" xmlns="http://www.w3.org/2000/svg">
<g id="Icon/upload_add">
<path id="Union" fill-rule="evenodd" clip-rule="evenodd" d="M18.75 17.25V20.5H20.25V17.25H23.5V15.75L20.25 15.75V12.5H18.75V15.75L15.5 15.75V17.25H18.75Z" fill="#223047"/>
<path id="Subtract" fill-rule="evenodd" clip-rule="evenodd" d="M12 2C15.64 2 18.67 4.59 19.35 8.04C21.2481 8.17141 22.8531 9.34743 23.5813 11H21.217C20.7155 10.453 20.0115 10.0907 19.22 10.04L17.69 9.93L17.39 8.43C16.88 5.86 14.62 4 12 4C9.94 4 8.08 5.14 7.13 6.97L6.63 7.92L5.56 8.03C3.53 8.24 2 9.95 2 12C2 14.21 3.79 16 6 16H13.5V18H6C2.69 18 0 15.31 0 12C0 8.91 2.34 6.36 5.35 6.04C6.6 3.64 9.11 2 12 2ZM13.5 11H16L12 7L8 11H10.55V14H13.45V11H13.5Z" fill="#223047"/>
</g>
</svg>
