<svg width="24" height="24" viewBox="0 0 24 24" fill="none" xmlns="http://www.w3.org/2000/svg">
<path d="M3.5 6C3.5 5.17157 4.17157 4.5 5 4.5H19C19.8284 4.5 20.5 5.17157 20.5 6C20.5 6.82843 19.8284 7.5 19 7.5H5C4.17157 7.5 3.5 6.82843 3.5 6Z" fill="black"/>
<path d="M3.5 12C3.5 11.1716 4.17157 10.5 5 10.5H19C19.8284 10.5 20.5 11.1716 20.5 12C20.5 12.8284 19.8284 13.5 19 13.5H5C4.17157 13.5 3.5 12.8284 3.5 12Z" fill="black"/>
<path d="M3.5 18C3.5 17.1716 4.17157 16.5 5 16.5H19C19.8284 16.5 20.5 17.1716 20.5 18C20.5 18.8284 19.8284 19.5 19 19.5H5C4.17157 19.5 3.5 18.8284 3.5 18Z" fill="black"/>
</svg>
