<svg width="24" height="24" viewBox="0 0 24 24" fill="none" xmlns="http://www.w3.org/2000/svg">
<path d="M10.5 5H5.5C5.22386 5 5 5.22386 5 5.5V10.5C5 10.7761 5.22386 11 5.5 11H10.5C10.7761 11 11 10.7761 11 10.5V5.5C11 5.22386 10.7761 5 10.5 5Z" fill="black"/>
<path d="M18.5 5H13.5C13.2239 5 13 5.22386 13 5.5V10.5C13 10.7761 13.2239 11 13.5 11H18.5C18.7761 11 19 10.7761 19 10.5V5.5C19 5.22386 18.7761 5 18.5 5Z" fill="black"/>
<path d="M5 13.5V18.5C5 18.7761 5.22386 19 5.5 19H10.5C10.7761 19 11 18.7761 11 18.5V13.5C11 13.2239 10.7761 13 10.5 13H5.5C5.22386 13 5 13.2239 5 13.5Z" fill="black"/>
<path d="M18.5 13H13.5C13.2239 13 13 13.2239 13 13.5V18.5C13 18.7761 13.2239 19 13.5 19H18.5C18.7761 19 19 18.7761 19 18.5V13.5C19 13.2239 18.7761 13 18.5 13Z" fill="black"/>
</svg>
