<svg width="24" height="24" viewBox="0 0 24 24" fill="none" xmlns="http://www.w3.org/2000/svg">
<path fill-rule="evenodd" clip-rule="evenodd" d="M5.5 4.5C4.94772 4.5 4.5 4.94772 4.5 5.5V10.5C4.5 11.0523 4.94772 11.5 5.5 11.5H10.5C11.0523 11.5 11.5 11.0523 11.5 10.5C11.5 9.94771 11.5 5.5 11.5 5.5C11.5 4.94772 11.0523 4.5 10.5 4.5H5.5ZM5.5 5.5V10.5H10.5V5.5H5.5Z" fill="#223047"/>
<path fill-rule="evenodd" clip-rule="evenodd" d="M13.5 4.5C12.9477 4.5 12.5 4.94772 12.5 5.5V10.5C12.5 11.0523 12.9477 11.5 13.5 11.5H18.5C19.0523 11.5 19.5 11.0523 19.5 10.5C19.5 9.94771 19.5 5.5 19.5 5.5C19.5 4.94772 19.0523 4.5 18.5 4.5H13.5ZM13.5 5.5V10.5H18.5V5.5H13.5Z" fill="#223047"/>
<path fill-rule="evenodd" clip-rule="evenodd" d="M13.5 12.5C12.9477 12.5 12.5 12.9477 12.5 13.5V18.5C12.5 19.0523 12.9477 19.5 13.5 19.5H18.5C19.0523 19.5 19.5 19.0523 19.5 18.5C19.5 17.9477 19.5 13.5 19.5 13.5C19.5 12.9477 19.0523 12.5 18.5 12.5H13.5ZM13.5 13.5V18.5H18.5V13.5H13.5Z" fill="#223047"/>
<path fill-rule="evenodd" clip-rule="evenodd" d="M5.5 12.5C4.94772 12.5 4.5 12.9477 4.5 13.5V18.5C4.5 19.0523 4.94772 19.5 5.5 19.5H10.5C11.0523 19.5 11.5 19.0523 11.5 18.5C11.5 17.9477 11.5 13.5 11.5 13.5C11.5 12.9477 11.0523 12.5 10.5 12.5H5.5ZM5.5 13.5V18.5H10.5V13.5H5.5Z" fill="#223047"/>
</svg>
