<svg width="32" height="16" viewBox="0 0 32 16" fill="none" xmlns="http://www.w3.org/2000/svg">
<rect width="32" height="16" rx="2" fill="black"/>
<path d="M2.02091 11.3049C2.05575 11.2407 2.11151 11.2367 2.18817 11.2929C3.91359 12.4507 5.87781 13.0532 7.87506 13.0374C9.25907 13.0335 10.6306 12.7358 11.9207 12.1591C11.9555 12.1431 12.0061 12.119 12.0723 12.0869C12.1385 12.0548 12.1855 12.0308 12.2134 12.0147C12.2547 11.9888 12.303 11.9819 12.3486 11.9952C12.3942 12.0086 12.4336 12.0414 12.4591 12.0869C12.5183 12.1832 12.4992 12.2714 12.4016 12.3516C12.2761 12.4559 12.1158 12.5762 11.9207 12.7125C11.2932 13.135 10.6177 13.4549 9.91356 13.663C9.20793 13.8824 8.48055 13.9957 7.74962 13.9998C6.69495 14.0068 5.64863 13.7843 4.66573 13.3442C3.70811 12.9149 2.82615 12.2892 2.06272 11.4974C2.0452 11.4839 2.03048 11.4662 2.01964 11.4453C2.00879 11.4245 2.00208 11.4012 2 11.3771C2.00052 11.3512 2.00781 11.326 2.02091 11.3049ZM11.3562 11.5094C11.3725 11.4737 11.3937 11.4412 11.4189 11.4132C11.5713 11.2887 11.741 11.1952 11.9207 11.1365C12.1733 11.0583 12.4329 11.0139 12.6943 11.0041C12.7606 10.9959 12.8277 11 12.8929 11.0162C13.2065 11.0483 13.3947 11.1084 13.4574 11.1966C13.4891 11.2627 13.5036 11.3379 13.4992 11.4132V11.4974C13.4875 11.8396 13.4201 12.1763 13.3006 12.49C13.1843 12.8444 12.994 13.1605 12.7466 13.4103C12.7208 13.438 12.6876 13.455 12.6525 13.4585C12.6379 13.4583 12.6236 13.4542 12.6107 13.4464C12.5688 13.4224 12.5584 13.3782 12.5793 13.3141C12.7777 12.857 12.9084 12.365 12.9661 11.8583C12.971 11.7906 12.9563 11.723 12.9243 11.6658C12.8546 11.5696 12.6594 11.5215 12.3389 11.5215C12.2204 11.5215 12.081 11.5295 11.9207 11.5455C11.7465 11.5696 11.5862 11.5937 11.4398 11.6177C11.4103 11.6218 11.3806 11.6132 11.3562 11.5937C11.3499 11.5882 11.3454 11.5805 11.3435 11.5717C11.3416 11.563 11.3424 11.5537 11.3457 11.5455C11.347 11.5328 11.3506 11.5205 11.3562 11.5094Z" fill="#F19D38"/>
<path fill-rule="evenodd" clip-rule="evenodd" d="M4.28773 8.95704C4.2721 8.44903 4.42705 7.94912 4.73107 7.52673C5.03386 7.12536 5.45497 6.81387 5.94373 6.62976C6.49948 6.42353 7.08297 6.28895 7.67796 6.22976C7.91267 6.20552 8.29516 6.1732 8.82543 6.13279V5.92673C8.85838 5.57057 8.79565 5.21237 8.64288 4.88431C8.54422 4.76098 8.41352 4.66294 8.26301 4.59934C8.11251 4.53575 7.9471 4.50868 7.78228 4.52067H7.67796C7.40934 4.53862 7.15166 4.62687 6.93472 4.77522C6.72395 4.92378 6.57992 5.13972 6.5305 5.38128C6.52535 5.44773 6.49714 5.51083 6.45012 5.5611C6.40309 5.61137 6.33979 5.6461 6.26972 5.66007L4.77019 5.49037C4.62241 5.45805 4.54852 5.38532 4.54852 5.27219C4.54918 5.24352 4.55355 5.21503 4.56156 5.18734C4.61205 4.86454 4.73509 4.55524 4.92268 4.27957C5.11027 4.0039 5.35821 3.76804 5.65035 3.58734C6.25932 3.23082 6.95877 3.03011 7.67796 3.00552H8.00395C8.84765 2.95838 9.67858 3.21441 10.325 3.72067C10.4122 3.80185 10.4928 3.88896 10.5662 3.98128C10.6304 4.06057 10.6892 4.14356 10.7422 4.22976C10.796 4.32957 10.8355 4.43553 10.8596 4.54492C10.8943 4.68229 10.9204 4.77724 10.9378 4.82976C10.9628 4.94142 10.9759 5.05511 10.9769 5.16916C10.9856 5.3429 10.99 5.44593 10.99 5.47825V8.41158C10.9875 8.60725 11.0205 8.8019 11.0878 8.98734C11.1317 9.12013 11.1954 9.24659 11.2768 9.3631C11.3377 9.43986 11.4376 9.5631 11.5767 9.73279C11.6225 9.789 11.6497 9.85639 11.655 9.92673C11.6537 9.96077 11.6436 9.994 11.6254 10.0236C11.6072 10.0531 11.5816 10.0781 11.5507 10.0964C10.8291 10.6782 10.438 10.9934 10.3771 11.0419C10.3226 11.0779 10.2584 11.0992 10.1917 11.1035C10.125 11.1078 10.0583 11.0948 9.99897 11.0661C9.87727 10.9692 9.77078 10.8762 9.6795 10.7873C9.58823 10.6984 9.52303 10.6338 9.48391 10.5934C9.41632 10.5179 9.3532 10.439 9.29484 10.357C9.20791 10.2399 9.14706 10.1611 9.11229 10.1207C8.73505 10.5452 8.23854 10.8641 7.67796 11.0419C7.32079 11.1299 6.95207 11.1707 6.58266 11.1631C6.28041 11.1734 5.97897 11.1278 5.69582 11.029C5.41267 10.9301 5.15344 10.78 4.93318 10.5873C4.70969 10.3722 4.53688 10.1161 4.42575 9.83538C4.31462 9.55469 4.26762 9.25555 4.28773 8.95704ZM6.5305 8.71461C6.51573 8.9872 6.60587 9.25577 6.78477 9.47219C6.86751 9.56553 6.97236 9.63982 7.09112 9.68923C7.20988 9.73865 7.33932 9.76186 7.46933 9.75704C7.50658 9.75589 7.54365 9.75183 7.58017 9.74492C7.6124 9.73863 7.64509 9.73458 7.67796 9.73279C7.86148 9.6866 8.03215 9.60423 8.1784 9.49129C8.32464 9.37835 8.44303 9.23748 8.52552 9.07825C8.62273 8.92099 8.69519 8.75159 8.74067 8.57522C8.78216 8.43046 8.80837 8.28228 8.81891 8.13279C8.82325 8.01966 8.82543 7.83381 8.82543 7.57522V7.27219C8.44012 7.26112 8.0548 7.29368 7.67796 7.36916C7.34341 7.42536 7.04235 7.59297 6.83114 7.84062C6.61993 8.08828 6.51305 8.39899 6.5305 8.71461Z" fill="white"/>
<g clip-path="url(#clip0_5_254)">
<path d="M30 3.5H18V12.5H30V3.5Z" fill="#2B9F5A"/>
<path fill-rule="evenodd" clip-rule="evenodd" d="M24 4.625L19.125 8L24 11.375L28.875 8L24 4.625Z" fill="#FFD018"/>
<path d="M26.25 8C26.25 9.24264 25.2426 10.25 24 10.25C22.7574 10.25 21.75 9.24264 21.75 8C21.75 6.75736 22.7574 5.75 24 5.75C25.2426 5.75 26.25 6.75736 26.25 8Z" fill="#41479B"/>
<mask id="mask0_5_254" style="mask-type:alpha" maskUnits="userSpaceOnUse" x="21" y="5" width="6" height="6">
<path d="M26.25 8C26.25 9.24264 25.2426 10.25 24 10.25C22.7574 10.25 21.75 9.24264 21.75 8C21.75 6.75736 22.7574 5.75 24 5.75C25.2426 5.75 26.25 6.75736 26.25 8Z" fill="#41479B"/>
</mask>
<g mask="url(#mask0_5_254)">
<path fill-rule="evenodd" clip-rule="evenodd" d="M21.4053 7.52971L21.3745 7.25015C21.3437 6.97059 21.3437 6.97059 21.3438 6.97059L21.3456 6.97038L21.35 6.96992L21.3659 6.96829C21.3796 6.96693 21.3994 6.96503 21.4249 6.96279C21.4758 6.95829 21.5493 6.95244 21.6413 6.94675C21.8252 6.93538 22.0838 6.92466 22.3846 6.92711C22.9817 6.93195 23.7636 6.98868 24.4585 7.20604C25.1485 7.42189 25.7358 7.75558 26.1485 8.03279C26.3556 8.17184 26.5204 8.29784 26.6342 8.38973C26.6911 8.4357 26.7354 8.47323 26.766 8.4997C26.7812 8.51294 26.793 8.52342 26.8013 8.53082L26.811 8.53956L26.8138 8.54213L26.8147 8.54295C26.8147 8.543 26.8152 8.54345 26.6245 8.75014C26.4338 8.95684 26.4338 8.95688 26.4339 8.95692L26.4326 8.95573L26.426 8.94984C26.4199 8.94436 26.4103 8.93586 26.3973 8.92464C26.3715 8.90219 26.3323 8.86893 26.2809 8.82738C26.1778 8.74423 26.0263 8.6283 25.8349 8.49975C25.4507 8.24175 24.913 7.9376 24.2905 7.74289C23.6729 7.54969 22.9548 7.49426 22.38 7.48959C22.0949 7.48727 21.8496 7.49745 21.676 7.50818C21.5893 7.51353 21.5207 7.51902 21.4743 7.52311C21.451 7.52516 21.4333 7.52686 21.4217 7.52802L21.4088 7.52934L21.4053 7.52971Z" fill="#F5F8FB"/>
</g>
<path d="M23.25 8.9375C23.25 9.04105 23.1661 9.125 23.0625 9.125C22.9589 9.125 22.875 9.04105 22.875 8.9375C22.875 8.83395 22.9589 8.75 23.0625 8.75C23.1661 8.75 23.25 8.83395 23.25 8.9375Z" fill="#F5F8FB"/>
<path d="M24.375 9.3125C24.375 9.41605 24.2911 9.5 24.1875 9.5C24.0839 9.5 24 9.41605 24 9.3125C24 9.20895 24.0839 9.125 24.1875 9.125C24.2911 9.125 24.375 9.20895 24.375 9.3125Z" fill="#F5F8FB"/>
<path d="M25.125 8.9375C25.125 9.04105 25.0411 9.125 24.9375 9.125C24.8339 9.125 24.75 9.04105 24.75 8.9375C24.75 8.83395 24.8339 8.75 24.9375 8.75C25.0411 8.75 25.125 8.83395 25.125 8.9375Z" fill="#F5F8FB"/>
</g>
<defs>
<clipPath id="clip0_5_254">
<rect x="18" y="3.5" width="12" height="9" rx="2" fill="white"/>
</clipPath>
</defs>
</svg>
