<svg width="56" height="56" viewBox="0 0 56 56" fill="none" xmlns="http://www.w3.org/2000/svg">
<g clip-path="url(#clip0_3268_13052)">
<path d="M56 28C56 43.4631 43.4631 56 28 56C12.5369 56 0 43.4631 0 28C0 12.5369 12.5369 0 28 0C43.4631 0 56 12.5369 56 28Z" fill="#FEE500"/>
<path d="M28 14.7946C18.8202 14.7946 11.3931 20.6768 11.3931 27.9108C11.3931 32.575 14.4679 36.6599 19.1024 38.992L17.5427 44.8445C17.4833 45.0227 17.5427 45.201 17.6615 45.3347C17.7507 45.4238 17.8695 45.4684 18.0032 45.4684C18.1072 45.4684 18.2111 45.4387 18.3003 45.3644L25.0292 40.819C25.9947 40.9527 26.9899 41.027 28.0148 41.027C37.1947 41.027 44.6217 35.1596 44.6217 27.9108C44.6217 20.662 37.1798 14.7946 28.0148 14.7946H28ZM19.6223 31.3867C19.6223 31.9066 19.3252 32.2185 18.835 32.2185C18.3448 32.2185 18.0477 31.9066 18.0477 31.3867V25.6233H16.3692C15.8493 25.6233 15.6562 25.2371 15.6562 24.8954C15.6562 24.5389 15.9087 24.1676 16.3692 24.1676H21.3008C21.7613 24.1676 22.0138 24.5389 22.0138 24.8954C22.0138 25.2519 21.8207 25.6233 21.3008 25.6233H19.6371V31.3867H19.6223ZM27.3018 32.2185C26.9008 32.2185 26.6483 32.0402 26.5294 31.6689L26.1878 30.5845H22.8753L22.5188 31.654C22.4 32.0402 22.1475 32.2185 21.7613 32.2185C21.3156 32.2185 20.974 31.8917 20.974 31.4906C20.974 31.3272 21.0186 31.2084 21.0483 31.149L23.3507 25.044C23.5141 24.5983 23.9151 24.123 24.539 24.123C25.0886 24.123 25.5194 24.4646 25.7273 25.044L27.9554 31.149C28.0297 31.3421 28.0446 31.4906 28.0446 31.5501C28.0446 31.9363 27.7326 32.2333 27.3167 32.2333L27.3018 32.2185ZM33.4069 31.4312C33.4069 31.7729 33.1247 32.1294 32.6493 32.1294H29.6934C29.1735 32.1294 28.8615 31.8026 28.8615 31.253V24.94C28.8615 24.4349 29.1586 24.1081 29.6488 24.1081C30.139 24.1081 30.4361 24.4201 30.4361 24.94V30.6885H32.6345C32.8721 30.6885 33.0652 30.7628 33.2138 30.9113C33.3475 31.045 33.4069 31.2381 33.4069 31.4461V31.4312ZM40.017 31.5946C39.9576 32.1739 39.3931 32.2185 39.2297 32.2185C39.1851 32.2185 39.1406 32.2185 39.1109 32.2185C38.8138 32.1888 38.6504 32.0105 38.3533 31.5946L36.2589 28.7426L35.6944 29.3219V31.4609C35.6944 31.8917 35.3528 32.2185 34.9072 32.2185C34.4318 32.2185 34.105 31.9066 34.105 31.4609V24.8806C34.105 24.4201 34.4467 24.0933 34.9072 24.0933C35.3676 24.0933 35.6944 24.4052 35.6944 24.8806V27.4206L38.487 24.5092C38.6058 24.3904 38.8138 24.2121 39.1257 24.2121C39.5119 24.2121 39.8981 24.4795 39.8833 24.94C39.8833 25.1628 39.7496 25.2965 39.4971 25.5936C39.4377 25.653 39.3782 25.7272 39.304 25.8164L37.3878 27.7474L39.6456 30.7034C39.8833 31.0153 40.0764 31.2678 40.0318 31.5798L40.017 31.5946Z" fill="#1C1C1B"/>
<path d="M24.5093 25.5491L23.3061 29.1586H25.7273L24.5241 25.5491C24.5241 25.5491 24.4944 25.5342 24.4944 25.5491H24.5093Z" fill="#1C1C1B"/>
</g>
<defs>
<clipPath id="clip0_3268_13052">
<rect width="56" height="56" fill="white"/>
</clipPath>
</defs>
</svg>
