<svg width="137" height="42" viewBox="0 0 137 42" fill="none" xmlns="http://www.w3.org/2000/svg">
<path d="M101.674 2.66228V32.4529C101.674 32.8253 101.982 33.1298 102.356 33.1298H108.042C108.416 33.1298 108.724 32.8253 108.724 32.4529V2.66228C108.724 2.28993 108.416 1.98545 108.042 1.98545H102.356C101.982 1.98545 101.674 2.28992 101.674 2.66228Z" fill="#223047" stroke="#223047" stroke-width="0.2"/>
<path d="M116.17 40.2711L116.17 40.2714C115.997 40.6675 116.285 41.1 116.719 41.1H122.43C122.801 41.1 123.138 40.8776 123.285 40.5373L123.285 40.537L136.052 10.7836L136.052 10.7834C136.218 10.3952 135.932 9.95566 135.504 9.95566H129.692C129.315 9.95566 128.971 10.1845 128.83 10.5331L128.823 10.5511V10.557L123.115 24.5352L117.029 10.5184C116.882 10.1769 116.545 9.96187 116.174 9.96187H110.35C109.924 9.96187 109.629 10.3932 109.802 10.7901C109.802 10.7902 109.802 10.7903 109.802 10.7904L119.368 33.0292L116.17 40.2711Z" fill="#223047" stroke="#223047" stroke-width="0.2"/>
<path d="M11.2491 22.5363L7.43675 10.6094C7.43669 10.6092 7.43663 10.609 7.43657 10.6088C7.31682 10.2186 6.95827 9.96187 6.55294 9.96187H1.4985C1.09307 9.96187 0.807262 10.3563 0.927741 10.7371L0.927789 10.7372L7.91771 32.7072L7.91568 32.7081C7.99749 32.9514 8.22186 33.1236 8.48589 33.1236H13.4528C13.7146 33.1236 13.9478 32.9533 14.0236 32.706C14.0237 32.7058 14.0237 32.7056 14.0238 32.7055L18.014 20.2243L22.0898 32.7055C22.0899 32.7058 22.09 32.7061 22.0901 32.7064C22.166 32.9534 22.3991 33.1236 22.6609 33.1236H27.5839C27.8437 33.1236 28.0784 32.9613 28.1548 32.7122C28.1549 32.712 28.1549 32.7118 28.155 32.7117L35.192 10.7312L35.1923 10.7304C35.3124 10.3434 35.0265 9.95566 34.6214 9.95566H29.5669C29.1673 9.95566 28.803 10.2191 28.6833 10.6025C28.6833 10.6026 28.6833 10.6027 28.6833 10.6027L24.8702 22.5319L21.1487 10.6089L21.1481 10.6074C21.0222 10.2259 20.6654 9.96187 20.2587 9.96187H15.8173C15.4115 9.96187 15.0468 10.2253 14.9273 10.6155L14.9273 10.6154L15.0229 10.6449L14.9273 10.6156L11.2491 22.5363ZM11.2491 22.5363L11.3024 22.7029M11.2491 22.5363L11.3024 22.7029M11.3024 22.7029L11.2508 22.8701L11.3024 22.7029Z" fill="#223047" stroke="#223047" stroke-width="0.2"/>
<path d="M37.3113 10.6387V32.4592C37.3113 32.8315 37.6196 33.136 37.993 33.136H43.6793C44.0527 33.136 44.361 32.8315 44.361 32.4592V10.6387C44.361 10.2664 44.0527 9.96189 43.6793 9.96189H37.993C37.6196 9.96189 37.3113 10.2664 37.3113 10.6387Z" fill="#223047" stroke="#223047" stroke-width="0.2"/>
<path d="M54.8265 12.5373V10.6387C54.8265 10.2663 54.5182 9.96185 54.1448 9.96185H48.4585C48.085 9.96185 47.7767 10.2663 47.7767 10.6387V32.4174L47.7705 32.4236V32.4653C47.7705 32.8377 48.0788 33.1422 48.4522 33.1422H54.1385C54.5119 33.1422 54.8203 32.8377 54.8203 32.4653V20.1409C54.8203 17.4992 56.7197 15.67 59.2987 15.6821C61.5861 15.6942 63.403 17.6371 63.403 19.9114V32.4591C63.403 32.8315 63.7113 33.136 64.0847 33.136H69.771C70.1444 33.136 70.4527 32.8315 70.4527 32.4591V19.0865C70.4527 16.0828 69.6442 13.674 68.1117 12.0152C66.5781 10.3554 64.3315 9.45945 61.4824 9.45945C58.4751 9.45945 55.9361 10.6832 54.8265 12.5373Z" fill="#223047" stroke="#223047" stroke-width="0.2"/>
<path d="M40.8393 8.55542C42.97 8.55542 44.6988 6.8425 44.6988 4.72771C44.6988 2.61292 42.97 0.9 40.8393 0.9C38.7085 0.9 36.9797 2.61292 36.9797 4.72771C36.9797 6.8425 38.7085 8.55542 40.8393 8.55542Z" fill="#223047" stroke="#223047" stroke-width="0.2"/>
<path d="M97.3266 2.01027H91.7403C91.3669 2.01027 91.0586 2.31475 91.0586 2.6871V11.915C89.1677 10.3823 86.818 9.46569 84.2588 9.46569C78.0358 9.46569 73.0052 14.8509 73.0052 21.4745C73.0052 28.0981 78.0358 33.4833 84.2588 33.4833C86.818 33.4833 89.1677 32.5667 91.0586 31.034V32.4778C91.0586 32.8501 91.3669 33.1546 91.7403 33.1546H97.4266C97.8 33.1546 98.1084 32.8501 98.1084 32.4778V2.6809C98.1084 2.30854 97.8 2.00406 97.4266 2.00406H97.3266V2.01027ZM91.0652 19.4076L91.0653 19.4079C91.3175 20.0605 91.4589 20.7678 91.4589 21.5117C91.4589 22.2556 91.3175 22.9629 91.0653 23.6155L91.0652 23.6158C90.247 25.7508 88.2305 27.2607 85.8664 27.2607C82.7839 27.2607 80.2739 24.6905 80.2739 21.5117C80.2739 18.3329 82.7777 15.7628 85.8664 15.7628C88.2305 15.7628 90.247 17.2727 91.0652 19.4076Z" fill="#223047" stroke="#223047" stroke-width="0.2"/>
</svg>
