<svg width="40" height="40" viewBox="0 0 40 40" fill="none" xmlns="http://www.w3.org/2000/svg">
<path d="M13.3651 20.7012L9.55625 8.68345C9.55619 8.68324 9.55612 8.68304 9.55606 8.68283C9.43661 8.29032 9.07863 8.03125 8.67306 8.03125H3.62306C3.21685 8.03125 2.9328 8.42917 3.05265 8.81118L3.05269 8.81133L10.0365 30.9495L10.0344 30.9504C10.116 31.1949 10.3399 31.3687 10.6043 31.3687H15.5668C15.829 31.3687 16.0617 31.1968 16.1373 30.9484C16.1374 30.9482 16.1374 30.948 16.1375 30.9478L20.1241 18.3715L24.1961 30.9478C24.1962 30.948 24.1963 30.9483 24.1964 30.9486C24.272 31.1969 24.5047 31.3687 24.7668 31.3687H29.6856C29.9458 31.3687 30.18 31.2049 30.2561 30.9545C30.2562 30.9544 30.2562 30.9542 30.2563 30.954L37.2871 8.80526L37.2874 8.80441C37.4068 8.41619 37.1227 8.025 36.7168 8.025H31.6668C31.267 8.025 30.9032 8.29075 30.7839 8.67638C30.7838 8.67649 30.7838 8.67661 30.7838 8.67672L26.9742 20.6967L23.2561 8.68293L23.2556 8.6814C23.13 8.29768 22.7737 8.03125 22.3668 8.03125H17.9293C17.5233 8.03125 17.1592 8.29706 17.0399 8.68952C17.0399 8.68958 17.0399 8.68964 17.0399 8.6897L13.3651 20.7012Z" fill="#223047" stroke="#223047" stroke-width="0.2"/>
</svg>
